<svg width="24" height="24" viewBox="0 0 24 24" fill="none" xmlns="http://www.w3.org/2000/svg">
<g clip-path="url(#clip0_17718_2156)">
<path d="M23.5945 17.5308C23.5275 17.5363 16.8345 18.0653 12.7705 17.1728C12.23 17.0538 11.8855 17.2173 11.052 17.6128C10.0505 18.0923 9.03074 18.5326 7.995 18.9328C4.5685 20.2688 2.725 20.3423 2.4175 19.8228C2.129 19.3333 2.782 17.1728 3.553 15.4473C3.57345 15.4023 3.5848 15.3537 3.58641 15.3043C3.58801 15.2549 3.57984 15.2057 3.56235 15.1594C3.54487 15.1132 3.51842 15.0709 3.48453 15.0349C3.45063 14.999 3.40996 14.9701 3.36486 14.9499C3.31975 14.9297 3.2711 14.9186 3.22169 14.9172C3.17229 14.9159 3.12311 14.9244 3.07698 14.9421C3.03086 14.9598 2.98869 14.9865 2.95291 15.0206C2.91713 15.0547 2.88845 15.0956 2.8685 15.1408C2.8185 15.2518 2.735 15.4438 2.636 15.6833C1.755 15.0733 0.75 14.1618 0.75 13.6148C0.8075 13.3678 1.6665 12.6238 2.65 11.9518C2.66578 12.0008 2.67765 12.0509 2.6855 12.1018C2.66722 12.2668 2.63816 12.4305 2.5985 12.5918C2.47851 12.9535 2.44713 13.3388 2.507 13.7153C2.621 14.0588 2.977 14.1798 3.237 14.2688C3.274 14.2813 3.3225 14.2978 3.3605 14.3118C3.4605 14.5343 3.6695 14.8983 3.816 15.1438C3.839 15.2363 3.8885 15.4238 3.957 15.6173C4.00685 15.7586 4.08954 15.8862 4.19828 15.9893C4.30702 16.0925 4.43871 16.1684 4.5825 16.2108C4.72472 16.2533 4.87507 16.2612 5.02096 16.2337C5.16685 16.2062 5.30403 16.1442 5.421 16.0528C5.521 15.9743 5.6515 15.8663 5.7955 15.7413L5.536 16.7168C5.52119 16.7723 5.51936 16.8305 5.53065 16.8868C5.54193 16.9432 5.56603 16.9961 5.60107 17.0417C5.63612 17.0872 5.68117 17.1241 5.73275 17.1494C5.78433 17.1747 5.84104 17.1879 5.8985 17.1878C5.93617 17.188 5.97364 17.1823 6.0095 17.1708C6.93869 16.8614 7.82441 16.4343 8.645 15.8998C10.4755 14.6888 10.77 13.3998 10.7815 13.3438C10.8028 13.2467 10.7846 13.1452 10.731 13.0615C10.6775 12.9778 10.5928 12.9188 10.4958 12.8975C10.3987 12.8762 10.2971 12.8944 10.2134 12.948C10.1298 13.0016 10.0708 13.0862 10.0495 13.1833C9.98489 13.3902 9.89147 13.5869 9.772 13.7678L8.266 13.9083C8.21675 13.9105 8.16844 13.9225 8.12381 13.9434C8.07918 13.9644 8.03911 13.9939 8.00589 14.0303C7.9388 14.1039 7.90368 14.2011 7.90825 14.3005C7.91282 14.4 7.95672 14.4935 8.03028 14.5606C8.10384 14.6277 8.20104 14.6628 8.3005 14.6583H8.3355L9.098 14.5873C8.83084 14.8433 8.54061 15.0741 8.231 15.2768C7.6668 15.644 7.06934 15.9574 6.4465 16.2128L6.8235 14.7973C7.32455 14.3701 7.75281 13.8644 8.0915 13.2998C8.17741 12.8581 8.13151 12.401 7.9595 11.9853C7.91777 11.8972 7.84339 11.8288 7.75212 11.7946C7.66085 11.7605 7.55986 11.7632 7.47054 11.8022C7.38122 11.8412 7.3106 11.9134 7.27363 12.0036C7.23667 12.0938 7.23626 12.1948 7.2725 12.2853C7.37452 12.5441 7.40693 12.8251 7.3665 13.1003C6.64171 13.963 5.83604 14.7545 4.9605 15.4638C4.93727 15.4821 4.90997 15.4946 4.88091 15.5002C4.85184 15.5057 4.82186 15.5042 4.7935 15.4958C4.76361 15.4869 4.73623 15.4711 4.71363 15.4497C4.69103 15.4282 4.67385 15.4017 4.6635 15.3723C4.61201 15.2246 4.56812 15.0744 4.532 14.9223C4.52292 14.8839 4.50809 14.8472 4.488 14.8133C4.288 14.4633 4.175 14.2388 4.0345 13.9923C3.97458 13.8879 3.89461 13.7964 3.79919 13.723C3.70377 13.6496 3.59478 13.5959 3.4785 13.5648C3.38854 13.5372 3.30107 13.502 3.217 13.4598C3.23635 13.2221 3.27481 12.9863 3.332 12.7548C3.39663 12.5229 3.43026 12.2835 3.432 12.0428C3.3493 11.6369 3.22549 11.2405 3.0625 10.8598C2.929 10.4918 2.7585 10.0198 2.551 9.41827C2.529 9.35377 2.514 9.28877 2.4975 9.22377C3.191 9.60277 4.263 9.59127 5.38 9.49027C6.571 9.38377 8.268 9.29627 9.2495 9.76277C9.29399 9.78391 9.3422 9.79608 9.39139 9.79859C9.44058 9.8011 9.48978 9.7939 9.53619 9.77739C9.58259 9.76089 9.62529 9.7354 9.66185 9.7024C9.69841 9.66939 9.72811 9.6295 9.74925 9.58502C9.77039 9.54053 9.78257 9.49232 9.78508 9.44313C9.78759 9.39394 9.78038 9.34474 9.76388 9.29833C9.74737 9.25192 9.72189 9.20922 9.68888 9.17267C9.65587 9.13611 9.61598 9.10641 9.5715 9.08527C8.686 8.66477 7.3715 8.55777 5.3125 8.74327C2.796 8.96827 2.526 8.44677 2.4735 7.93877C2.4 7.22527 3.3055 6.27977 3.6605 5.97527C3.71692 5.92713 3.75766 5.86323 3.7775 5.79177C3.8609 5.54167 3.99465 5.31131 4.17051 5.1149C4.34637 4.91849 4.56061 4.76019 4.8 4.64977C5.21467 4.46705 5.65978 4.36327 6.1125 4.34377C6.52996 4.94606 7.16422 5.36352 7.8825 5.50877C9.7785 6.00327 10.0605 6.48727 10.102 6.62377C10.1648 6.84631 10.186 7.07853 10.1645 7.30877C9.92137 7.20003 9.67072 7.10896 9.4145 7.03627C8.80728 6.87394 8.1874 6.76338 7.5615 6.70577C7.108 6.64827 6.576 6.58177 5.923 6.47777C5.41946 6.41085 4.93146 6.25653 4.481 6.02177C4.43832 5.99728 4.39123 5.98143 4.34243 5.97514C4.29363 5.96884 4.24406 5.97222 4.19657 5.98508C4.14907 5.99794 4.10457 6.02003 4.06561 6.05009C4.02665 6.08015 3.99399 6.11759 3.9695 6.16027C3.94501 6.20295 3.92916 6.25003 3.92287 6.29884C3.91657 6.34764 3.91995 6.3972 3.93281 6.4447C3.94568 6.4922 3.96777 6.5367 3.99782 6.57566C4.02788 6.61462 4.06532 6.64728 4.108 6.67177C4.6363 6.95375 5.2109 7.13867 5.8045 7.21777C6.468 7.32377 7.0075 7.39177 7.468 7.44977C8.05203 7.50347 8.63065 7.60515 9.198 7.75377C10.0765 8.02027 10.4185 8.26177 10.4585 8.64677C10.4605 8.8791 10.4081 9.10867 10.3054 9.31707C10.2027 9.52547 10.0525 9.70689 9.867 9.84677C9.81551 9.88397 9.7743 9.93363 9.74723 9.99109C9.72015 10.0486 9.7081 10.112 9.7122 10.1753C9.71629 10.2387 9.7364 10.3001 9.77065 10.3536C9.80489 10.4071 9.85215 10.451 9.908 10.4813L10.7445 10.9313C10.7992 10.9607 10.8604 10.9761 10.9225 10.9763C10.9407 10.9762 10.9589 10.9748 10.977 10.9723L12.027 10.8173C12.0757 10.8101 12.1225 10.7934 12.1648 10.7681C12.2071 10.7428 12.2439 10.7094 12.2733 10.6699C12.3027 10.6304 12.324 10.5854 12.336 10.5377C12.348 10.4899 12.3504 10.4402 12.3433 10.3915C12.3361 10.3428 12.3193 10.296 12.2941 10.2537C12.2688 10.2114 12.2354 10.1746 12.1959 10.1452C12.1563 10.1159 12.1114 10.0946 12.0636 10.0826C12.0159 10.0706 11.9662 10.0681 11.9175 10.0753L10.9915 10.2118L10.713 10.0618C10.8912 9.8583 11.0267 9.62103 11.1113 9.3641C11.1959 9.10717 11.228 8.83584 11.2055 8.56627C11.1753 8.27611 11.0501 8.00404 10.8495 7.79227C10.9551 7.334 10.945 6.85664 10.82 6.40327C10.62 5.74127 9.72 5.21027 8.07 4.78027C7.6174 4.6838 7.20371 4.45493 6.8815 4.12277C7.3615 3.91417 7.89082 3.84603 8.408 3.92627C8.66775 3.94478 8.91487 4.04546 9.11361 4.21373C9.31235 4.382 9.4524 4.60913 9.5135 4.86227C9.5394 4.95673 9.60124 5.03731 9.68579 5.08677C9.77034 5.13623 9.87088 5.15065 9.96592 5.12694C10.061 5.10323 10.143 5.04327 10.1944 4.95989C10.2458 4.87651 10.2625 4.77633 10.241 4.68077C10.1455 4.29081 9.9332 3.9393 9.63254 3.67322C9.33189 3.40715 8.95718 3.23918 8.5585 3.19177C7.76419 3.0697 6.95174 3.21014 6.2445 3.59177C5.64459 3.59072 5.0512 3.71611 4.503 3.95977C4.17937 4.1067 3.88816 4.31646 3.64628 4.57688C3.4044 4.8373 3.21667 5.14319 3.094 5.47677C2.7545 5.78477 1.6145 6.90627 1.728 8.01077C1.731 8.04027 1.738 8.06577 1.7425 8.09427C1.73484 8.10919 1.72849 8.12475 1.7235 8.14077C1.63225 8.64843 1.67323 9.17103 1.8425 9.65827C2.02194 10.1799 2.20662 10.6998 2.3965 11.2178C1.45 11.8413 0 12.9128 0 13.5998C0 14.7153 1.6285 15.9198 2.3535 16.3998C1.877 17.6693 1.3375 19.4688 1.7715 20.2048C2.0505 20.6773 2.6385 20.8643 3.396 20.8643C4.7495 20.8643 6.6425 20.2643 8.2675 19.6328C9.825 19.0253 10.757 18.5828 11.3735 18.2918C12.154 17.9208 12.3285 17.8448 12.6095 17.9063C16.785 18.8238 23.3775 18.3018 23.655 18.2788C23.7041 18.2748 23.7518 18.2612 23.7956 18.2388C23.8394 18.2163 23.8784 18.1855 23.9102 18.148C23.9421 18.1105 23.9663 18.0671 23.9814 18.0203C23.9965 17.9734 24.0022 17.9241 23.9982 17.875C23.9943 17.826 23.9807 17.7782 23.9582 17.7344C23.9358 17.6906 23.905 17.6516 23.8675 17.6198C23.83 17.5879 23.7866 17.5637 23.7397 17.5486C23.6929 17.5335 23.6435 17.5278 23.5945 17.5318V17.5308Z" fill="black"/>
<path d="M11.7131 13.1455C11.7755 13.2395 11.8615 13.3154 11.9625 13.3657C12.0635 13.416 12.176 13.4388 12.2886 13.432C12.396 13.4305 12.5028 13.4157 12.6066 13.388C13.2937 13.1594 13.9379 12.8183 14.5131 12.3785C14.5427 12.5123 14.6068 12.636 14.699 12.7374C14.7912 12.8388 14.9083 12.9143 15.0387 12.9564C15.1692 12.9985 15.3083 13.0058 15.4424 12.9774C15.5765 12.9491 15.7009 12.8862 15.8031 12.795C17.2426 11.4995 17.2816 11.335 17.3131 11.204C17.3566 11.021 17.3976 10.8155 17.4321 10.629L20.1821 10.689H20.1906C20.2901 10.69 20.3859 10.6515 20.4569 10.5819C20.528 10.5124 20.5685 10.4174 20.5696 10.318C20.5707 10.2185 20.5322 10.1227 20.4626 10.0516C20.393 9.98054 20.2981 9.94001 20.1986 9.93895L17.8221 9.88895L23.8911 3.77545C23.9301 3.74159 23.9618 3.70002 23.984 3.65337C24.0062 3.60671 24.0185 3.55596 24.0202 3.50431C24.0218 3.45266 24.0128 3.40123 23.9937 3.35323C23.9745 3.30523 23.9457 3.26171 23.9089 3.2254C23.8721 3.18908 23.8283 3.16076 23.78 3.1422C23.7318 3.12364 23.6803 3.11526 23.6286 3.11756C23.577 3.11987 23.5264 3.13282 23.48 3.1556C23.4337 3.17838 23.3925 3.2105 23.3591 3.24995L16.8891 9.76095C16.8336 9.81738 16.797 9.88975 16.7846 9.96795C16.7846 9.97395 16.6946 10.5505 16.5941 10.984C16.1908 11.4298 15.7585 11.8485 15.3001 12.2375L15.2501 12.1905L16.0846 11.0835C16.1396 11.0099 16.1656 10.9186 16.1578 10.8271C16.15 10.7356 16.1088 10.6501 16.0422 10.5869C15.9755 10.5237 15.888 10.4872 15.7962 10.4842C15.7044 10.4813 15.6147 10.5122 15.5441 10.571L14.5201 11.4305C13.8912 11.9528 13.181 12.3687 12.4176 12.6615C12.3956 12.667 12.3761 12.671 12.3591 12.6745C12.518 12.1706 12.7814 11.706 13.1321 11.311C13.7753 10.647 14.554 10.1292 15.4151 9.79295C15.4833 9.76715 15.5424 9.72196 15.5851 9.66295L19.7601 3.88145C19.789 3.84153 19.8097 3.79631 19.8211 3.74839C19.8324 3.70046 19.8343 3.65076 19.8265 3.60213C19.8186 3.55349 19.8013 3.50688 19.7755 3.46494C19.7496 3.423 19.7158 3.38656 19.6759 3.3577C19.6359 3.32884 19.5907 3.30813 19.5428 3.29675C19.4949 3.28536 19.4452 3.28353 19.3965 3.29135C19.3479 3.29918 19.3013 3.3165 19.2593 3.34234C19.2174 3.36818 19.181 3.40203 19.1521 3.44195L15.0426 9.13595C14.0957 9.51242 13.2444 10.0946 12.5501 10.8405C12.2501 11.2165 11.2936 12.494 11.7131 13.1455Z" fill="black"/>
<path d="M23.3694 8.32066L20.2264 11.2437L19.4669 11.1567C18.9411 11.0965 18.4107 11.2213 17.9669 11.5097C15.8434 12.8987 15.7494 13.3672 15.8274 13.6967C15.8798 13.9227 15.9949 14.1294 16.1594 14.2931C16.3239 14.4568 16.5311 14.5708 16.7574 14.6222C17.0283 14.6703 17.3034 14.6914 17.5784 14.6852C17.8859 14.6852 18.1944 14.6687 18.4029 14.6527C19.4839 14.6228 20.5189 14.2093 21.3229 13.4862L23.8144 12.0392C23.8571 12.0144 23.8945 11.9815 23.9245 11.9423C23.9544 11.9031 23.9764 11.8584 23.989 11.8107C24.0017 11.763 24.0049 11.7133 23.9983 11.6644C23.9918 11.6155 23.9757 11.5683 23.9509 11.5257C23.9262 11.483 23.8933 11.4456 23.8541 11.4156C23.8149 11.3857 23.7701 11.3637 23.7225 11.3511C23.6748 11.3384 23.6251 11.3352 23.5762 11.3418C23.5273 11.3483 23.4801 11.3644 23.4374 11.3892L20.8999 12.8652C20.8643 12.8864 20.8321 12.9128 20.8044 12.9437C20.7754 12.9777 20.0609 13.7682 18.3439 13.9047C17.872 13.952 17.3963 13.9473 16.9254 13.8907C16.8456 13.8725 16.7717 13.8345 16.7105 13.7801C16.6493 13.7258 16.6028 13.6568 16.5754 13.5797C16.6414 13.4707 16.9569 13.0672 18.3784 12.1377C18.6759 11.9438 19.0318 11.8603 19.3844 11.9017L20.3149 12.0082C20.3692 12.0137 20.424 12.0076 20.4757 11.9904C20.5274 11.9731 20.5749 11.9451 20.6149 11.9082L23.8844 8.86766C23.9574 8.7999 24.0004 8.70594 24.0041 8.60645C24.0077 8.50696 23.9717 8.41009 23.9039 8.33716C23.8362 8.26422 23.7422 8.2212 23.6427 8.21754C23.5432 8.21388 23.4464 8.2499 23.3734 8.31766L23.3694 8.32066Z" fill="black"/>
</g>
<defs>
<clipPath id="clip0_17718_2156">
<rect width="24" height="24" fill="white"/>
</clipPath>
</defs>
</svg>
