<svg width="24" height="24" viewBox="0 0 24 24" fill="none" xmlns="http://www.w3.org/2000/svg">
<path d="M18.8063 4.28977C19.5735 5.48184 19.9813 6.86963 19.9808 8.28727V10.6853M15.4582 1.47656C16.105 1.7482 16.7095 2.11094 17.2535 2.55375M12.8581 5.19L10.3057 4.04484C9.64994 3.75094 9.31526 3.015 9.52432 2.32734C9.89276 1.11563 11.0042 0.351562 12.1901 0.351562C12.544 0.351562 12.9045 0.419531 13.2537 0.563906L13.9423 0.848906M5.73537 8.72175V10.6852M9.29327 2.58192C7.98054 3.28031 6.9559 4.38506 6.35004 5.70066M6.14641 13.5094C5.63173 13.0133 5.31152 12.3167 5.31152 11.5454C5.31152 10.9461 5.79734 10.4602 6.39668 10.4602H7.39052" stroke="black" stroke-width="0.703125" stroke-miterlimit="10" stroke-linecap="round" stroke-linejoin="round"/>
<path d="M18.3257 10.4601H19.3195C19.9188 10.4601 20.4047 10.946 20.4047 11.5453C20.4047 12.2985 20.0994 12.9805 19.6057 13.4741M12.2141 19.1474C12.6327 19.2251 13.062 19.2265 13.4811 19.1512M7.39062 11.9849V10.4601C7.53969 10.4601 7.68031 10.4165 7.79375 10.3368C7.90766 10.2571 7.99437 10.1418 8.03562 9.99838C8.22219 9.34963 8.50109 8.73979 8.86016 8.18479M9.91578 6.91822C10.4665 6.4009 11.0996 5.97888 11.7889 5.66947L12.8581 5.18994L13.9273 5.66947C14.8301 6.07455 15.6337 6.67172 16.2819 7.41932C16.9303 8.16692 17.4077 9.04711 17.6806 9.99838C17.7219 10.1418 17.8086 10.2571 17.9225 10.3368C18.0359 10.4165 18.1766 10.4601 18.3256 10.4601V11.9118M9.80802 9.94846C10.0687 9.80514 10.3614 9.73 10.6589 9.73C10.9564 9.73 11.2491 9.80514 11.5098 9.94846" stroke="black" stroke-width="0.703125" stroke-miterlimit="10" stroke-linecap="round" stroke-linejoin="round"/>
<path d="M14.2065 9.94844C14.4672 9.80512 14.7599 9.72998 15.0574 9.72998C15.3549 9.72998 15.6476 9.80512 15.9083 9.94844M11.3456 11.9118C11.1352 12.0274 10.899 12.0881 10.6589 12.0881C10.4188 12.0881 10.1826 12.0274 9.97221 11.9118M15.7441 11.9118C15.5337 12.0274 15.2975 12.0881 15.0574 12.0881C14.8173 12.0881 14.5811 12.0274 14.3707 11.9118M12.2125 14.0022C12.4124 14.1041 12.6337 14.1572 12.8581 14.1572C13.0826 14.1572 13.3038 14.1041 13.5038 14.0022M12.3412 16.971C12.6858 17.0946 13.0304 17.0946 13.375 16.971M11.3603 15.6881C11.6073 15.8116 11.8906 15.8417 12.158 15.773L12.5049 15.684L12.8581 15.8795L13.2113 15.684L13.5581 15.773C13.8256 15.8417 14.1089 15.8115 14.3559 15.6881M7.71232 15.9268V12.6496C7.71232 12.2421 7.38288 11.9118 6.97652 11.9118C6.57016 11.9118 6.24072 12.2421 6.24072 12.6496V16.7278C6.2406 17.0581 6.35029 17.379 6.55253 17.6401L8.54046 20.1539C8.65545 20.2993 8.73384 20.4702 8.76903 20.6522C8.80422 20.8342 8.79518 21.022 8.74268 21.1998L8.01977 23.6484" stroke="black" stroke-width="0.703125" stroke-miterlimit="10" stroke-linecap="round" stroke-linejoin="round"/>
<path d="M10.0017 16.3849L9.39698 15.7409C8.99667 15.2777 8.29917 15.2299 7.83979 15.6335C7.8337 15.6387 7.8276 15.6443 7.82198 15.6499C7.68557 15.7863 7.6762 16.008 7.80417 16.1566L10.1381 18.7802M11.1253 17.5812L11.5612 18.0452C11.8361 18.3379 12.036 18.6928 12.1439 19.0796C12.2518 19.4663 12.2645 19.8734 12.1809 20.2662L11.4599 23.6487M4.81274 23.6487C5.33303 23.0571 6.03318 22.6528 6.80559 22.4977L8.46773 22.0096M17.6967 23.6487L16.9739 21.1999C16.9212 21.0222 16.9121 20.8344 16.9473 20.6524C16.9825 20.4704 17.0609 20.2995 17.1759 20.1541L17.7131 19.4749M18.0042 15.927V12.6499C18.0042 12.2426 18.3337 11.9121 18.7401 11.9121C18.9431 11.9121 19.1268 11.9946 19.2599 12.1282C19.3931 12.2618 19.4756 12.4465 19.4756 12.6499V16.728C19.4756 17.0585 19.3659 17.3801 19.1639 17.6402L18.7321 18.1859" stroke="black" stroke-width="0.703125" stroke-miterlimit="10" stroke-linecap="round" stroke-linejoin="round"/>
<path d="M14.2564 23.6484L13.5357 20.2656C13.452 19.873 13.4647 19.4659 13.5725 19.0792C13.6804 18.6925 13.8803 18.3377 14.1551 18.045L16.3192 15.7403C16.7197 15.2776 17.4171 15.2295 17.8767 15.6331C17.8827 15.6385 17.8886 15.6439 17.8945 15.6498C18.0308 15.7861 18.0402 16.0076 17.9121 16.1561L15.5785 18.7798M20.9036 23.6484C20.3833 23.0568 19.6832 22.6525 18.9108 22.4975L17.2486 22.0093M5.76811 4.6161L5.48986 5.35963C5.40473 5.58711 5.27181 5.7937 5.10006 5.96545C4.92831 6.1372 4.72172 6.27013 4.49424 6.35525L3.75071 6.6335L4.49424 6.91175C4.72172 6.99688 4.92831 7.1298 5.10006 7.30156C5.27181 7.47331 5.40473 7.67989 5.48986 7.90738L5.76811 8.65091L6.04636 7.90738C6.13149 7.67989 6.26441 7.47331 6.43617 7.30156C6.60792 7.1298 6.8145 6.99688 7.04199 6.91175L7.78552 6.6335L7.04199 6.35525C6.8145 6.27013 6.60792 6.1372 6.43617 5.96545C6.26441 5.7937 6.13149 5.58711 6.04636 5.35963L5.76811 4.6161ZM18.3257 0.994629L18.0347 1.77205C17.9457 2.0099 17.8067 2.2259 17.6272 2.40547C17.4476 2.58505 17.2316 2.72403 16.9937 2.81305L16.2163 3.104L16.9937 3.39496C17.2316 3.48397 17.4476 3.62296 17.6272 3.80254C17.8067 3.98211 17.9457 4.19811 18.0347 4.43596L18.3257 5.21338L18.6166 4.43596C18.7057 4.19811 18.8446 3.98211 19.0242 3.80254C19.2038 3.62296 19.4198 3.48397 19.6576 3.39496L20.4351 3.104L19.6576 2.81305C19.4198 2.72403 19.2038 2.58505 19.0242 2.40547C18.8446 2.2259 18.7057 2.0099 18.6166 1.77205L18.3257 0.994629ZM4.854 18.2625L4.61471 18.902C4.53953 19.1028 4.42216 19.2852 4.27051 19.4369C4.11887 19.5885 3.93647 19.7059 3.73561 19.7811L3.09619 20.0203L3.73561 20.2596C3.93647 20.3348 4.11887 20.4522 4.27051 20.6038C4.42216 20.7555 4.53953 20.9379 4.61471 21.1387L4.854 21.7782L5.09405 21.1367C5.16899 20.9365 5.28598 20.7547 5.43715 20.6035C5.58832 20.4523 5.77015 20.3353 5.97038 20.2604L6.61182 20.0203L5.97239 19.7811C5.77154 19.7059 5.58914 19.5885 5.43749 19.4369C5.28585 19.2852 5.16848 19.1028 5.0933 18.902L4.854 18.2625Z" stroke="black" stroke-width="0.703125" stroke-miterlimit="10" stroke-linecap="round" stroke-linejoin="round"/>
</svg>
