<svg width="24" height="24" viewBox="0 0 24 24" fill="none" xmlns="http://www.w3.org/2000/svg">
<g clip-path="url(#clip0_17718_2129)">
<path d="M23.6866 0.312703C23.6855 0.311578 23.6842 0.310594 23.6831 0.309469C23.4846 0.112734 23.211 0 22.9318 0H22.9304C22.6886 0.000170786 22.4541 0.0824642 22.2653 0.233391C19.0752 2.78163 15.9286 5.38365 12.8266 8.03836L5.88544 1.0973C5.20003 0.411984 4.08488 0.412078 3.39952 1.0973L0.10294 4.39392C0.037483 4.45995 0.000845703 4.54921 0.0010449 4.64219C0.00124409 4.73516 0.0382636 4.82427 0.104003 4.89002C0.169742 4.95576 0.258847 4.99279 0.35182 4.993C0.444793 4.9932 0.534064 4.95658 0.600096 4.89113L2.90236 2.58891L3.40547 3.09202L1.10325 5.39423C1.0378 5.46026 1.00116 5.54953 1.00136 5.6425C1.00156 5.73547 1.03858 5.82458 1.10432 5.89033C1.17005 5.95607 1.25916 5.9931 1.35213 5.99331C1.44511 5.99352 1.53438 5.95689 1.60041 5.89144L3.90267 3.58922L4.40578 4.09233L2.10352 6.39455C2.03806 6.46057 2.00142 6.54984 2.00162 6.64281C2.00182 6.73579 2.03884 6.82489 2.10458 6.89064C2.17032 6.95639 2.25943 6.99341 2.3524 6.99362C2.44537 6.99383 2.53464 6.9572 2.60067 6.89175L4.90294 4.58948L5.40605 5.09259L3.10383 7.39481C3.03837 7.46084 3.00174 7.55011 3.00194 7.64308C3.00213 7.73605 3.03915 7.82516 3.10489 7.89091C3.17063 7.95665 3.25974 7.99368 3.35271 7.99389C3.44568 7.99409 3.53495 7.95747 3.60099 7.89202L5.9032 5.5898L6.40632 6.09291L4.1041 8.39512C4.03864 8.46115 4.002 8.55042 4.0022 8.64339C4.0024 8.73636 4.03942 8.82547 4.10516 8.89122C4.1709 8.95696 4.26 8.99399 4.35298 8.9942C4.44595 8.99441 4.53522 8.95778 4.60125 8.89233L6.90347 6.59011L7.40658 7.09322L5.10436 9.39544C5.0389 9.46146 5.00227 9.55073 5.00247 9.6437C5.00267 9.73668 5.03969 9.82579 5.10542 9.89153C5.17116 9.95728 5.26027 9.9943 5.35324 9.99451C5.44622 9.99472 5.53549 9.95809 5.60152 9.89264L7.90374 7.59042L8.40685 8.09353L6.10463 10.3958C6.03917 10.4618 6.00253 10.551 6.00273 10.644C6.00293 10.737 6.03995 10.8261 6.10569 10.8918C6.17143 10.9576 6.26053 10.9946 6.35351 10.9948C6.44648 10.995 6.53575 10.9584 6.60178 10.893L8.904 8.59073L9.40716 9.09389L7.10494 11.3961C7.03948 11.4621 7.00285 11.5514 7.00305 11.6444C7.00324 11.7373 7.04026 11.8265 7.106 11.8922C7.17174 11.9579 7.26085 11.995 7.35382 11.9952C7.44679 11.9954 7.53606 11.9588 7.6021 11.8933L9.90436 9.59105L10.4252 10.1119C9.34793 11.0498 8.27618 11.994 7.20999 12.9444C7.20952 12.9444 7.20952 12.9444 7.20952 12.945C6.8941 13.2255 6.55003 13.5487 6.21061 13.8547C6.00267 14.0052 6.04228 14.2696 6.14546 14.3728C6.14546 14.3728 6.14546 14.3732 6.14592 14.3732C6.48436 14.7829 6.67139 15.306 6.67139 15.8469C6.67139 16.4793 6.42811 17.0708 5.98613 17.5124L4.92581 18.5727C3.39699 20.1372 0.704627 19.0696 0.70308 16.8539C0.704018 15.5087 1.79044 14.3977 3.16303 14.3967C3.91064 14.3972 4.60861 14.73 5.07783 15.3089C5.2051 15.4657 5.43877 15.4827 5.58689 15.3483C5.58877 15.3469 5.59017 15.3455 5.59205 15.3436L5.59533 15.3407C5.76 15.1927 5.74838 14.9259 5.56439 14.7942C4.96346 14.0948 4.08924 13.6936 3.16538 13.6936H3.16069C1.40297 13.6936 -0.00206023 15.1249 2.2678e-06 16.8539C-0.00154461 18.1567 0.794627 19.3075 1.97246 19.7859C2.66011 20.0641 3.42347 20.0927 4.13002 19.8668C3.47039 21.9188 5.0056 24 7.13935 24H7.1431C8.88666 24 10.3076 22.5885 10.3057 20.8378C10.3066 20.0058 9.98602 19.2206 9.4043 18.6262L10.1221 17.8102C11.385 16.4047 12.6374 14.9899 13.8792 13.5657L14.4089 14.0954L12.1066 16.3976C12.074 16.4303 12.0481 16.469 12.0304 16.5117C12.0128 16.5544 12.0037 16.6001 12.0037 16.6462C12.0037 16.6924 12.0128 16.7381 12.0304 16.7808C12.0481 16.8234 12.074 16.8622 12.1067 16.8949C12.1393 16.9275 12.1781 16.9534 12.2207 16.9711C12.2634 16.9887 12.3091 16.9978 12.3553 16.9978C12.4015 16.9978 12.4472 16.9887 12.4898 16.971C12.5325 16.9534 12.5712 16.9275 12.6039 16.8948L14.9061 14.5926L15.4092 15.0957L13.107 17.3979C13.0744 17.4306 13.0485 17.4693 13.0308 17.512C13.0131 17.5547 13.004 17.6004 13.004 17.6466C13.004 17.6927 13.0131 17.7384 13.0308 17.7811C13.0485 17.8238 13.0744 17.8625 13.107 17.8952C13.1397 17.9278 13.1784 17.9537 13.2211 17.9714C13.2638 17.989 13.3095 17.9981 13.3556 17.9981C13.4018 17.9981 13.4475 17.989 13.4902 17.9714C13.5328 17.9537 13.5716 17.9278 13.6043 17.8951L15.9065 15.5929L16.4095 16.096L14.1073 18.3982C14.0414 18.4641 14.0043 18.5536 14.0043 18.6468C14.0044 18.7401 14.0414 18.8295 14.1073 18.8954C14.1733 18.9614 14.2627 18.9984 14.356 18.9984C14.4492 18.9984 14.5386 18.9613 14.6046 18.8954L16.9068 16.5932L17.4098 17.0963L15.1076 19.3985C15.075 19.4312 15.0491 19.4699 15.0314 19.5126C15.0138 19.5552 15.0047 19.601 15.0047 19.6471C15.0047 19.6933 15.0138 19.739 15.0314 19.7817C15.0491 19.8243 15.075 19.8631 15.1077 19.8957C15.1403 19.9284 15.1791 19.9543 15.2217 19.972C15.2644 19.9896 15.3101 19.9987 15.3563 19.9987C15.4024 19.9987 15.4482 19.9896 15.4908 19.9719C15.5335 19.9543 15.5722 19.9284 15.6049 19.8957L17.9071 17.5935L18.4102 18.0966L16.108 20.3988C16.0753 20.4314 16.0494 20.4702 16.0318 20.5128C16.0141 20.5555 16.005 20.6012 16.005 20.6474C16.005 20.6936 16.0141 20.7393 16.0318 20.7819C16.0495 20.8246 16.0754 20.8634 16.108 20.896C16.1407 20.9287 16.1794 20.9546 16.2221 20.9722C16.2647 20.9899 16.3105 20.999 16.3566 20.999C16.4028 20.999 16.4485 20.9899 16.4912 20.9722C16.5338 20.9545 16.5726 20.9286 16.6052 20.896L18.9075 18.5938L19.4105 19.0968L17.1083 21.399C17.0757 21.4317 17.0498 21.4705 17.0321 21.5131C17.0144 21.5558 17.0053 21.6015 17.0053 21.6477C17.0053 21.6938 17.0144 21.7396 17.0321 21.7822C17.0498 21.8249 17.0757 21.8636 17.1083 21.8963C17.141 21.9289 17.1797 21.9548 17.2224 21.9725C17.265 21.9902 17.3108 21.9992 17.3569 21.9992C17.4031 21.9992 17.4488 21.9901 17.4915 21.9725C17.5341 21.9548 17.5729 21.9289 17.6055 21.8962L19.9078 19.594L20.4108 20.0971L18.1086 22.3993C18.0427 22.4653 18.0056 22.5547 18.0056 22.6479C18.0056 22.7412 18.0427 22.8306 18.1086 22.8965C18.1746 22.9625 18.264 22.9995 18.3573 22.9995C18.4505 22.9995 18.5399 22.9625 18.6059 22.8965L20.9081 20.5943L21.4111 21.0974L19.1089 23.3996C19.043 23.4655 19.006 23.5549 19.006 23.6482C19.006 23.7414 19.043 23.8309 19.1089 23.8968C19.1749 23.9627 19.2643 23.9998 19.3576 23.9998C19.4508 23.9998 19.5402 23.9627 19.6062 23.8968L22.1566 21.3463L22.157 21.3459L22.1573 21.3456L22.9028 20.6002C23.2348 20.2681 23.4176 19.8267 23.4176 19.3572C23.4176 18.8876 23.2348 18.4462 22.9028 18.1142L15.954 11.1659C18.6495 8.02139 21.2626 4.86741 23.7663 1.73391C24.106 1.3087 24.0717 0.697734 23.6866 0.312703ZM3.39956 2.0917L3.89672 1.59455C4.30791 1.18336 4.97705 1.18336 5.38828 1.59455L12.2915 8.49778C11.8457 8.88053 11.4009 9.26436 10.957 9.64927L3.39956 2.0917ZM22.4055 18.6117C22.6047 18.8109 22.7144 19.0757 22.7144 19.3575C22.7144 19.6392 22.6047 19.904 22.4055 20.1032L21.9083 20.6003C21.676 20.3681 14.8407 13.5328 14.3419 13.0341C14.7273 12.5906 15.1115 12.1463 15.4948 11.7011L22.4055 18.6117ZM9.79477 17.1217C9.62438 16.9913 9.17006 16.7655 9.0945 16.124C9.07341 15.9469 8.92388 15.8137 8.74622 15.8137C8.53383 15.8137 8.37197 15.9982 8.39606 16.2066H8.39653C8.46356 16.7798 8.77482 17.2866 9.25013 17.5964C9.27497 17.6128 9.29982 17.6296 9.3256 17.6484C9.08175 17.9266 8.88047 18.1608 8.64966 18.4157C8.61776 18.4512 8.59339 18.4929 8.578 18.538C8.56262 18.5832 8.55654 18.6311 8.56013 18.6787C8.56381 18.7263 8.57714 18.7726 8.5993 18.8149C8.62146 18.8573 8.65199 18.8946 8.68903 18.9247C9.27905 19.4064 9.60207 20.0996 9.60263 20.8378C9.60164 22.1926 8.51016 23.2959 7.14174 23.2968C5.78921 23.295 4.68085 22.205 4.68085 20.8378C4.68244 19.7251 5.38617 19.1292 5.44022 19.0528L6.48319 18.0098C7.05778 17.4352 7.37471 16.6578 7.37471 15.8469C7.37517 15.2544 7.20549 14.6821 6.88491 14.1928C7.16016 13.941 7.39955 13.7177 7.67757 13.4699L7.67897 13.468C15.3015 6.67153 22.6143 0.829172 22.7518 0.750469C22.6575 0.844734 8.94075 14.5556 8.87747 14.6269C8.74856 14.7722 8.76216 14.9948 8.907 15.1233C9.0526 15.2529 9.27558 15.2378 9.40341 15.0938C9.44546 15.0458 23.1485 1.3478 23.249 1.24734C23.2202 1.29792 17.5584 8.46933 9.79477 17.1217Z" fill="#6940C9"/>
<path d="M4.40743 15.6129C3.29851 14.5041 1.4064 15.3031 1.40649 16.8556C1.40649 17.3249 1.58945 17.7662 1.92165 18.0984C2.26435 18.441 2.71435 18.6123 3.16454 18.6123C3.61459 18.6123 4.06478 18.441 4.40743 18.0984C5.09354 17.4124 5.09364 16.299 4.40743 15.6129ZM3.91032 17.6011C3.49909 18.0122 2.82999 18.0123 2.41876 17.6011C1.76017 16.9426 2.22132 15.8017 3.16454 15.8017C4.11048 15.8018 4.56592 16.9456 3.91032 17.6011ZM7.14188 19.0805C6.41903 19.0805 5.79807 19.4955 5.52132 20.1637C5.24321 20.8351 5.38796 21.5697 5.89904 22.0807C6.23851 22.4201 6.67581 22.598 7.1274 22.598C7.35554 22.598 7.58738 22.5525 7.81192 22.4595C8.48284 22.1816 8.89965 21.5602 8.89965 20.8379C8.8996 19.8689 8.11112 19.0805 7.14188 19.0805ZM7.54276 21.81C7.22823 21.9402 6.76187 21.9492 6.3961 21.5835C6.03015 21.2176 6.03985 20.7492 6.17087 20.4328C6.30085 20.1189 6.6242 19.7836 7.14184 19.7836C7.72337 19.7836 8.19648 20.2566 8.19648 20.8379C8.19648 21.3549 7.85879 21.6791 7.54276 21.81Z" fill="#6940C9"/>
</g>
<defs>
<clipPath id="clip0_17718_2129">
<rect width="24" height="24" fill="white"/>
</clipPath>
</defs>
</svg>
