<svg width="24" height="24" viewBox="0 0 24 24" fill="none" xmlns="http://www.w3.org/2000/svg">
<g clip-path="url(#clip0_17718_2137)">
<path d="M18.6381 19.4502C18.4006 19.4844 18.2305 19.6988 18.2305 19.9387V23.5387C18.2305 24.1532 19.1877 24.1542 19.1877 23.5387V19.9237C19.1877 19.6361 18.934 19.4077 18.6381 19.4502ZM17.3643 5.56333C17.4084 4.69101 17.1014 3.86196 16.4995 3.2289C15.8978 2.59584 15.0853 2.24722 14.2119 2.24722H11.1687C10.2953 2.24722 9.48282 2.59584 8.88106 3.2289C8.03057 4.12347 7.99779 5.19676 8.05613 6.34868C6.71157 7.59986 5.9434 9.358 5.9434 11.1979V23.5388C5.9434 24.1533 6.90062 24.1543 6.90062 23.5388V11.1979C6.90062 9.91395 7.33821 8.67674 8.12371 7.68324L8.32913 11.7384C8.33578 14.1375 10.2896 16.0871 12.6903 16.0871C15.091 16.0871 17.0448 14.1375 17.0515 11.7384L17.241 7.99683C17.8843 8.93184 18.2305 10.0375 18.2305 11.1979V16.0091C18.2305 16.6236 19.1877 16.6245 19.1877 16.0091V11.1979C19.1877 9.4586 18.5226 7.82424 17.3127 6.58128L17.3643 5.56333ZM16.4082 5.51489L16.0949 11.7017C16.0945 11.7097 16.0943 11.7178 16.0943 11.7259C16.0943 13.6028 14.5672 15.1299 12.6902 15.1299C10.8133 15.1299 9.28625 13.6028 9.28625 11.7259C9.28625 11.7178 9.28606 11.7097 9.28563 11.7017L8.97229 5.51489C8.94046 4.88595 9.17067 4.28927 9.61932 3.84282C10.0385 3.42566 10.6144 3.20445 11.2057 3.20445H14.1747C14.7661 3.20445 15.3419 3.42566 15.7611 3.84282C16.2098 4.28927 16.4401 4.88595 16.4082 5.51489ZM23.6705 4.73337L22.4205 4.04967L21.7368 2.79959C21.5608 2.47772 21.0744 2.47514 20.897 2.79959L20.2133 4.04967L18.9632 4.73337C18.6413 4.9094 18.6387 5.39572 18.9632 5.57319L20.2133 6.25688L20.897 7.50692C21.073 7.82879 21.5593 7.83137 21.7368 7.50692L22.4205 6.25688L23.6705 5.57319C23.9923 5.39715 23.995 4.91079 23.6705 4.73337ZM22.4435 5.15325L21.7152 5.55155L21.3169 6.27981L20.9186 5.55155L20.1904 5.15321L20.9186 4.75491L21.3169 4.02665L21.7153 4.75491L22.4435 5.15325ZM1.94436 2.82878L3.07345 3.44634L3.69096 4.57543C3.86699 4.89729 4.35331 4.89988 4.53078 4.57543L5.14833 3.44634L6.27742 2.82878C6.59928 2.65275 6.60187 2.16643 6.27742 1.98896L5.14833 1.37146L4.53078 0.24237C4.35474 -0.0794963 3.86843 -0.0820808 3.69096 0.24237L3.07345 1.37146L1.94436 1.98901C1.6225 2.165 1.61991 2.65136 1.94436 2.82878ZM3.17147 2.4089L3.77878 2.07674L4.11094 1.46943L4.44309 2.07674L5.0504 2.40885L4.44309 2.74101L4.11094 3.34832L3.77883 2.74101L3.17147 2.4089ZM4.90529 13.5309L3.69775 12.8704L3.03732 11.6629C2.86128 11.341 2.37497 11.3384 2.1975 11.6629L1.53706 12.8704L0.329528 13.5309C0.00766187 13.7069 0.00507738 14.1933 0.329528 14.3707L1.53706 15.0312L2.1975 16.2387C2.37348 16.5605 2.8599 16.5632 3.03732 16.2387L3.69775 15.0312L4.90529 14.3707C5.22711 14.1947 5.22974 13.7084 4.90529 13.5309ZM2.99242 14.3259L2.61734 15.0116L2.24234 14.3259L1.55659 13.9509L2.24239 13.5758L2.61738 12.89L2.99242 13.5758L3.67818 13.9509L2.99242 14.3259ZM18.2672 18.138C18.4282 18.5243 18.9947 18.526 19.1533 18.1322C19.2033 18.0082 19.1987 17.8661 19.1398 17.7461C19.0128 17.4873 18.7026 17.4097 18.4733 17.5387C18.2658 17.6555 18.1756 17.9181 18.2672 18.138Z" fill="black"/>
<path d="M14.0002 19.5651C14.6147 19.5651 14.6156 18.6079 14.0002 18.6079H11.3338C10.7193 18.6079 10.7184 19.5651 11.3338 19.5651H14.0002ZM14.7486 20.5616H10.6321C10.0176 20.5616 10.0167 21.5188 10.6321 21.5188H14.7486C15.3632 21.5188 15.364 20.5616 14.7486 20.5616Z" fill="black"/>
</g>
<defs>
<clipPath id="clip0_17718_2137">
<rect width="24" height="24" fill="white"/>
</clipPath>
</defs>
</svg>
