<svg width="32" height="32" viewBox="0 0 32 32" fill="none" xmlns="http://www.w3.org/2000/svg">
<rect width="32" height="32" rx="4" fill="#EDF2F7"/>
<g clip-path="url(#clip0_62444_6961)">
<path d="M15.9996 6C10.4775 6 6 10.4775 6 15.9996C6 21.5217 10.4775 26 15.9996 26C21.5217 26 26 21.5217 26 15.9996C26 10.4775 21.5217 6 15.9996 6ZM18.0813 21.498C17.5666 21.7012 17.1568 21.8552 16.8495 21.9619C16.5048 22.0745 16.1437 22.1286 15.7812 22.1219C15.1581 22.1219 14.673 21.9695 14.3276 21.6656C13.9822 21.3617 13.8104 20.9765 13.8104 20.5084C13.8104 20.3263 13.8231 20.1401 13.8485 19.9505C13.8799 19.7345 13.9214 19.52 13.9729 19.3079L14.6171 17.0324C14.6739 16.814 14.723 16.6066 14.7619 16.4135C14.8008 16.2188 14.8195 16.0402 14.8195 15.8777C14.8195 15.5881 14.7594 15.385 14.64 15.2707C14.5189 15.1564 14.2912 15.1005 13.9517 15.1005C13.7858 15.1005 13.6148 15.1251 13.4396 15.1767C13.266 15.2301 13.1153 15.2783 12.9917 15.3257L13.1619 14.6248C13.5835 14.4529 13.9873 14.3056 14.3725 14.1837C14.7247 14.0659 15.0932 14.0036 15.4646 13.9992C16.0834 13.9992 16.5608 14.1498 16.8969 14.4478C17.2313 14.7467 17.3998 15.1352 17.3998 15.6127C17.3998 15.7117 17.3879 15.8861 17.3651 16.135C17.3452 16.3676 17.3021 16.5976 17.2364 16.8216L16.5956 19.0904C16.5381 19.2956 16.4909 19.5035 16.4542 19.7134C16.4193 19.8881 16.3986 20.0654 16.3924 20.2434C16.3924 20.5448 16.4593 20.7505 16.5947 20.8597C16.7285 20.9689 16.963 21.0239 17.2948 21.0239C17.4514 21.0239 17.6267 20.996 17.8248 20.9418C18.0212 20.8876 18.1634 20.8394 18.2531 20.7979L18.0813 21.498ZM17.9678 12.2891C17.6764 12.5639 17.2889 12.7134 16.8885 12.7056C16.4686 12.7056 16.1062 12.5668 15.8049 12.2891C15.6615 12.163 15.5471 12.0076 15.4692 11.8333C15.3913 11.659 15.3519 11.47 15.3537 11.2792C15.3537 10.8855 15.506 10.5469 15.8049 10.2667C16.0969 9.9897 16.4861 9.83859 16.8885 9.84593C17.3092 9.84593 17.6698 9.98561 17.9678 10.2667C18.2667 10.5469 18.4165 10.8855 18.4165 11.2792C18.4165 11.6745 18.2667 12.0114 17.9678 12.2891Z" fill="#0A5B55"/>
</g>
<defs>
<clipPath id="clip0_62444_6961">
<rect width="20" height="20" fill="white" transform="translate(6 6)"/>
</clipPath>
</defs>
</svg>
