<svg width="29" height="28" viewBox="0 0 29 28" fill="none" xmlns="http://www.w3.org/2000/svg">
<g clip-path="url(#clip0_61960_1273)">
<path d="M17.825 0.56875C15.9437 1.50938 14.7187 3.28125 14.3906 5.5125L14.2375 6.5625H15.025C17.4094 6.5625 19.8375 4.00312 20.1219 1.18125L20.2531 0H19.5969C19.2469 0 18.4594 0.2625 17.825 0.56875Z" fill="#333333"/>
<path d="M17.7812 7C16.9937 7.24063 15.9437 7.525 15.4625 7.67813C14.6531 7.91875 14.3687 7.89688 12.7937 7.37188C10.6718 6.67188 9.24997 6.62813 7.6531 7.21875C3.47497 8.79375 1.85622 14.3938 3.8906 20.3656C4.83122 23.1438 6.82185 26.1844 8.41872 27.3438C9.53435 28.1531 10.7812 28.2188 12.6625 27.5406C14.3031 26.9719 15.7906 26.9719 17.4312 27.5406C19.3781 28.2406 20.6031 28.1531 21.7625 27.2781C22.8343 26.4469 24.2562 24.5438 25.175 22.6406C26.1593 20.65 26.1812 20.4531 25.5687 20.1688C23.6437 19.2938 22.375 17.15 22.375 14.7656C22.375 12.8625 22.8343 11.7906 24.1906 10.5438C24.7593 10.0406 25.2187 9.5375 25.2187 9.42813C25.2187 9.31875 24.7593 8.8375 24.2125 8.33438C22.5062 6.84688 20.1 6.34375 17.7812 7Z" fill="#333333"/>
</g>
<defs>
<clipPath id="clip0_61960_1273">
<rect width="28" height="28" fill="white" transform="translate(0.5)"/>
</clipPath>
</defs>
</svg>
