<svg width="40" height="40" viewBox="0 0 40 40" fill="none" xmlns="http://www.w3.org/2000/svg">
<rect width="40" height="40" rx="12" fill="#242424" fill-opacity="0.1"/>
<path d="M24 10H16C12 10 10 12 10 16V29C10 29.55 10.45 30 11 30H24C28 30 30 28 30 24V16C30 12 28 10 24 10ZM22 23.25H15C14.59 23.25 14.25 22.91 14.25 22.5C14.25 22.09 14.59 21.75 15 21.75H22C22.41 21.75 22.75 22.09 22.75 22.5C22.75 22.91 22.41 23.25 22 23.25ZM25 18.25H15C14.59 18.25 14.25 17.91 14.25 17.5C14.25 17.09 14.59 16.75 15 16.75H25C25.41 16.75 25.75 17.09 25.75 17.5C25.75 17.91 25.41 18.25 25 18.25Z" fill="#6940C9"/>
</svg>
