<svg width="140" height="138" viewBox="0 0 140 138" fill="none" xmlns="http://www.w3.org/2000/svg">
<g id="Group">
<path id="Vector" d="M137.958 71.3332H130.667C129.5 71.3332 128.333 70.4582 128.333 68.9998C128.333 67.5415 129.208 66.6665 130.667 66.6665H137.958C139.125 66.6665 140.292 67.5415 140.292 68.9998C140.292 70.4582 139.125 71.3332 137.958 71.3332ZM70 11.8332C68.8333 11.8332 67.6667 10.9582 67.6667 9.49984V2.49984C67.6667 1.33317 68.5417 0.166504 70 0.166504C71.4583 0.166504 72.3333 1.0415 72.3333 2.49984V9.49984C72.3333 10.9582 71.1667 11.8332 70 11.8332ZM9.33333 71.3332H2.33333C0.875 71.3332 0 70.1665 0 68.9998C0 67.8332 0.875 66.6665 2.33333 66.6665H9.625C10.5 66.9582 11.6667 67.8332 11.6667 68.9998C11.6667 70.1665 10.5 71.3332 9.33333 71.3332ZM70 137.541C68.8333 137.541 67.6667 136.666 67.6667 135.208V128.208C67.6667 127.041 68.5417 125.875 70 125.875C71.4583 125.875 72.3333 126.75 72.3333 128.208V135.208C72.3333 136.666 71.1667 137.541 70 137.541ZM27.125 29.3332C26.5417 29.3332 25.9583 29.0415 25.6667 28.7498L20.4167 23.4998C19.5417 22.9165 19.5417 21.4582 20.4167 20.5832C21.2917 19.7082 22.75 19.7082 23.625 20.5832L28.5833 25.5415C29.4583 26.4165 29.4583 27.8748 28.5833 28.7498C28.2917 29.0415 27.7083 29.3332 27.125 29.3332ZM117.833 118C117.25 118 116.667 117.708 116.375 117.416L111.417 112.458C110.542 111.583 110.542 110.125 111.417 109.25C112.292 108.375 113.75 108.375 114.625 109.25L119.583 114.208C120.458 115.083 120.458 116.541 119.583 117.416C119 118 118.417 118 117.833 118ZM112.875 29.3332C112.292 29.3332 111.708 29.0415 111.417 28.7498C110.542 27.8748 110.542 26.4165 111.417 25.5415L116.375 20.5832C117.25 19.7082 118.708 19.7082 119.583 20.5832C120.458 21.4582 120.458 22.9165 119.583 23.7915L114.625 28.7498C114.042 29.0415 113.458 29.3332 112.875 29.3332ZM22.1667 118C21.5833 118 21 117.708 20.7083 117.416C19.8333 116.541 19.8333 115.083 20.7083 114.208L25.6667 109.25C26.5417 108.375 28 108.375 28.875 109.25C29.75 110.125 29.75 111.583 28.875 112.458L23.9167 117.416C23.0417 118 22.4583 118 22.1667 118ZM7.29167 96.7082C6.41667 96.7082 5.54167 96.1248 5.25 95.2498C4.66667 94.0832 5.25 92.9165 6.41667 92.3332L13.125 89.7082C14.2917 89.1248 15.4583 89.7082 16.0417 90.8748C16.625 92.0415 16.0417 93.2082 14.875 93.7915L8.16667 96.4165C7.875 96.4165 7.58333 96.7082 7.29167 96.7082ZM126 48.5832C125.125 48.5832 124.25 47.9998 123.958 47.1248C123.375 45.9582 123.958 44.7915 125.125 44.2082L131.833 41.5832C133 40.9998 134.167 41.5832 134.75 42.7498C135.333 43.9165 134.75 45.0832 133.583 45.6665L126.875 48.2915C126.583 48.2915 126.292 48.5832 126 48.5832ZM46.6667 16.4998C45.7917 16.4998 44.9167 15.9165 44.625 15.0415L42 8.62484C41.4167 7.45817 42 6.2915 43.1667 5.70817C44.3333 5.12484 45.5 5.70817 46.0833 6.87484L48.7083 13.2915C49.2917 14.4582 48.7083 15.6248 47.5417 16.2082C47.25 16.2082 46.9583 16.4998 46.6667 16.4998ZM95.9583 132.583C95.0833 132.583 94.2083 132 93.9167 131.125L91.2917 124.708C90.7083 123.541 91.2917 122.375 92.4583 121.791C93.625 121.208 94.7917 121.791 95.375 122.958L98 129.375C98.5833 130.541 98 131.708 96.8333 132.291C96.5417 132.583 96.25 132.583 95.9583 132.583ZM14 48.5832C13.7083 48.5832 13.4167 48.5832 13.125 48.2915L6.41667 45.6665C5.25 45.0832 4.66667 43.9165 5.25 42.7498C5.83333 41.5832 7 40.9998 8.16667 41.5832L14.875 44.2082C16.0417 44.7915 16.625 45.9582 16.0417 47.1248C15.75 47.9998 14.875 48.5832 14 48.5832ZM132.708 96.7082C132.417 96.7082 132.125 96.7082 131.833 96.4165L125.125 93.7915C123.958 93.2082 123.375 92.0415 123.958 90.8748C124.542 89.7082 125.708 89.1248 126.875 89.7082L133.583 92.3332C134.75 92.9165 135.333 94.0832 134.75 95.2498C134.458 96.1248 133.583 96.7082 132.708 96.7082ZM93.3333 16.4998C93.0417 16.4998 92.75 16.4998 92.4583 16.2082C91.2917 15.6248 90.7083 14.4582 91.2917 13.2915L93.9167 6.87484C94.5 5.70817 95.6667 5.12484 96.8333 5.70817C98 6.2915 98.5833 7.45817 98 8.62484L95.375 15.0415C94.7917 15.9165 93.9167 16.4998 93.3333 16.4998ZM44.0417 132.583C43.75 132.583 43.4583 132.583 43.1667 132.291C42 131.708 41.4167 130.541 42 129.375L44.625 122.958C45.2083 121.791 46.375 121.208 47.5417 121.791C48.7083 122.375 49.2917 123.541 48.7083 124.708L46.0833 131.125C45.7917 132 44.9167 132.583 44.0417 132.583Z" fill="#6940C9"/>
<path id="Vector_2" d="M105 57.3333C104.708 54.7083 102.375 53.25 99.75 53.25H74.6667L79.3333 36.625C80.5 32.25 77.875 27.875 73.5 26.7083L71.1667 26.125C68.5417 36.9167 62.7083 45.6667 54.25 53.25V90.875C58.625 92.9167 63.5833 93.7917 68.5417 93.7917H91.5833C94.2083 93.7917 96.5417 92.0417 96.8333 89.7083C97.4167 86.5 94.7917 83.875 91.875 83.875H94.5C97.125 83.875 99.4583 82.125 99.75 79.5C100.333 76.2917 97.7083 73.6667 94.7917 73.6667H97.4167C100.042 73.6667 102.375 71.9167 102.667 69.2917C103.25 66.0833 100.625 63.4583 97.7083 63.4583H100.333C103.25 63.1667 105.583 60.5417 105 57.3333Z" fill="#6940C9"/>
<path id="Vector_3" d="M100.042 63.1663H97.125C100.333 63.1663 102.667 65.7913 102.083 68.9997C101.792 71.6247 99.4583 73.3747 96.8333 73.3747H94.2083C97.4167 73.3747 99.75 75.9997 99.1667 79.208C99.1667 81.833 96.8333 83.583 94.2083 83.583H91.5833C94.7917 83.583 97.125 86.208 96.5417 89.4163C96.25 92.0413 93.9167 93.4997 91.2917 93.4997H68.25C65.625 93.4997 63 93.208 60.6667 92.6247C58.3333 92.0413 56.2917 91.458 54.25 90.583V52.958C62.7083 45.3747 68.8333 36.6247 71.1667 25.833L73.5 26.4163C77.875 27.583 80.5 31.958 79.3333 36.333L74.6667 52.958H99.75C102.375 52.958 104.708 54.708 105 57.0413C105.583 60.5413 103.25 63.1663 100.042 63.1663Z" fill="#6940C9"/>
<path id="Vector_4" d="M49.2917 45.375H37.3333C34.7083 45.375 32.375 47.7083 32.375 50.3333V90.875C32.375 93.5 34.7083 95.8333 37.3333 95.8333H49.2917C51.9167 95.8333 54.25 93.5 54.25 90.875V50.3333C54.25 47.7083 51.9167 45.375 49.2917 45.375Z" fill="#6940C9"/>
<path id="Vector_5" d="M54.25 50.3333V54.125C54.25 51.5 51.9167 49.1667 49.2917 49.1667H37.3333C34.7083 49.1667 32.375 51.5 32.375 54.125V50.3333C32.375 47.4167 34.7083 45.375 37.3333 45.375H49.2917C51.9167 45.375 54.25 47.7083 54.25 50.3333Z" fill="#6940C9"/>
<path id="Vector_6" d="M32.375 91.1667V87.375C32.375 90.2917 34.7083 92.3333 37.3333 92.3333H49.2917C52.2083 92.3333 54.25 90 54.25 87.375V91.1667C54.25 94.0833 51.9167 96.125 49.2917 96.125H37.3333C34.7083 96.125 32.375 93.7917 32.375 91.1667Z" fill="#6940C9"/>
<g id="Group_2">
<path id="Vector_7" d="M74.6667 52.958H71.75L77 45.083L74.6667 52.958ZM101.792 65.7913L81.9583 63.1663H97.125C99.1667 63.1663 100.917 64.333 101.792 65.7913ZM98.875 75.9997L85.1667 73.3747H94.5C96.25 73.3747 98 74.5413 98.875 75.9997ZM96.25 86.208L88.0833 83.583H91.5833C93.625 83.583 95.375 84.7497 96.25 86.208ZM60.6667 92.9163C58.3333 92.333 56.2917 91.7497 54.25 90.8747V52.958L60.6667 92.9163Z" fill="#D1C4EE"/>
</g>
<path id="Vector_8" d="M43.167 88.25C45.5832 88.25 47.542 86.2912 47.542 83.875C47.542 81.4588 45.5832 79.5 43.167 79.5C40.7507 79.5 38.792 81.4588 38.792 83.875C38.792 86.2912 40.7507 88.25 43.167 88.25Z" fill="#F0ECFA"/>
<path id="Vector_9" d="M47.5417 83.8747C47.5417 86.208 45.5 88.2497 43.1667 88.2497C41.4167 88.2497 39.9583 87.3747 39.375 85.9163C39.9583 86.208 40.5417 86.4997 41.4167 86.4997C43.75 86.4997 45.7917 84.458 45.7917 82.1247C45.7917 81.2497 45.5 80.6663 45.2083 80.083C46.6667 80.6663 47.5417 82.1247 47.5417 83.8747Z" fill="#D1C4EE"/>
<path id="Vector_10" d="M43.167 81.2498C43.167 82.1248 42.292 82.9998 41.417 82.9998C40.542 82.9998 39.9587 82.4165 39.667 81.8332C40.2503 80.9582 41.1253 80.0832 42.292 79.7915C42.8753 80.0832 43.167 80.3748 43.167 81.2498Z" fill="#F0ECFA"/>
</g>
</svg>
