<svg width="14" height="14" viewBox="0 0 14 14" fill="none" xmlns="http://www.w3.org/2000/svg">
<path d="M12.9998 0.999818C12.8123 0.812347 12.558 0.707031 12.2928 0.707031C12.0277 0.707031 11.7734 0.812347 11.5858 0.999818L6.99982 5.58582L2.41382 0.999818C2.22629 0.812347 1.97198 0.707031 1.70682 0.707031C1.44165 0.707031 1.18735 0.812347 0.999818 0.999818C0.812347 1.18735 0.707031 1.44165 0.707031 1.70682C0.707031 1.97198 0.812347 2.22629 0.999818 2.41382L5.58582 6.99982L0.999818 11.5858C0.812347 11.7734 0.707031 12.0277 0.707031 12.2928C0.707031 12.558 0.812347 12.8123 0.999818 12.9998C1.18735 13.1873 1.44165 13.2926 1.70682 13.2926C1.97198 13.2926 2.22629 13.1873 2.41382 12.9998L6.99982 8.41382L11.5858 12.9998C11.7734 13.1873 12.0277 13.2926 12.2928 13.2926C12.558 13.2926 12.8123 13.1873 12.9998 12.9998C13.1873 12.8123 13.2926 12.558 13.2926 12.2928C13.2926 12.0277 13.1873 11.7734 12.9998 11.5858L8.41382 6.99982L12.9998 2.41382C13.1873 2.22629 13.2926 1.97198 13.2926 1.70682C13.2926 1.44165 13.1873 1.18735 12.9998 0.999818Z" fill="#A8A8A8"/>
</svg>
