<svg width="22" height="22" viewBox="0 0 22 22" fill="none" xmlns="http://www.w3.org/2000/svg">
<path d="M21 11C21 16.5228 16.5228 21 11 21C5.47715 21 1 16.5228 1 11C1 5.47715 5.47715 1 11 1C16.5228 1 21 5.47715 21 11Z" stroke="#333333" stroke-width="1.5" stroke-linejoin="round"/>
<path d="M11 5.5V7M11 7C9.48122 7 8.25 7.92865 8.25 9.07413C8.25 10.2196 9 10.8519 11 10.8519C13 10.8519 14 11.4445 14 12.926C14 14.4075 12.6569 15 11 15M11 7C12.5188 7 13.75 7.92865 13.75 9.07413M11 15V16.5M11 15C9.34315 15 8 14.0715 8 12.926" stroke="#333333" stroke-width="1.5" stroke-linejoin="round"/>
</svg>
