<svg width="32" height="32" viewBox="0 0 32 32" fill="none" xmlns="http://www.w3.org/2000/svg">
<rect width="32" height="32" rx="4" fill="#EDF2F7"/>
<path fill-rule="evenodd" clip-rule="evenodd" d="M16.2275 8.69581C14.7732 8.64701 13.3403 9.05551 12.1304 9.86381C10.77 10.7733 9.77367 12.1332 9.31658 13.7045C9.1928 13.6894 9.04458 13.696 8.86858 13.7458C8.21146 13.9325 7.71746 14.4707 7.49524 14.9449C7.2068 15.5629 7.08524 16.3805 7.21346 17.224C7.3408 18.0651 7.69613 18.7585 8.14058 19.1889C8.58635 19.6196 9.08969 19.7596 9.58969 19.6545C10.3341 19.4956 10.7032 19.3767 10.599 18.6834L10.0946 15.3211C10.1458 14.4061 10.4091 13.5154 10.8636 12.7196C11.3182 11.9237 11.9515 11.2444 12.7137 10.7354C13.7408 10.0482 14.9575 9.70043 16.1927 9.74093C17.4278 9.78143 18.6191 10.2082 19.599 10.9611C20.2756 11.4799 20.8319 12.1388 21.2299 12.8927C21.6278 13.6466 21.858 14.4777 21.9046 15.3289L21.5517 17.6807C21.1688 18.7303 20.4962 19.6498 19.6119 20.3326C18.7276 21.0155 17.6678 21.4336 16.5555 21.5385H15.0519C14.9599 21.5383 14.8688 21.5562 14.7837 21.5913C14.6987 21.6264 14.6214 21.678 14.5563 21.743C14.4912 21.8081 14.4396 21.8853 14.4045 21.9703C14.3693 22.0553 14.3513 22.1465 14.3515 22.2385V22.6078C14.3513 22.6998 14.3693 22.791 14.4044 22.876C14.4396 22.9611 14.4912 23.0384 14.5562 23.1034C14.6213 23.1685 14.6986 23.22 14.7837 23.2552C14.8687 23.2903 14.9599 23.3082 15.0519 23.308H16.9477C17.0396 23.3082 17.1306 23.2902 17.2156 23.255C17.3005 23.2199 17.3777 23.1683 17.4426 23.1033C17.5075 23.0382 17.559 22.961 17.594 22.876C17.629 22.791 17.6469 22.6999 17.6466 22.608V22.4147C19.3498 21.9976 20.8337 20.9547 21.803 19.4934L22.4104 19.6545C22.9046 19.7827 23.4139 19.6194 23.8595 19.1889C24.3039 18.7583 24.659 18.0651 24.7866 17.224C24.9155 16.3803 24.7901 15.5643 24.5052 14.9449C24.2192 14.3256 23.7932 13.9323 23.3015 13.7911C23.0955 13.7318 22.8719 13.71 22.6801 13.7045C22.2673 12.2834 21.4118 11.0311 20.2379 10.13C19.084 9.24422 17.6814 8.74261 16.2275 8.69581Z" fill="#083EC5"/>
<path fill-rule="evenodd" clip-rule="evenodd" d="M18.4467 14.7444C18.6875 14.7447 18.9184 14.8405 19.0887 15.0108C19.2589 15.1811 19.3547 15.412 19.3549 15.6529C19.3545 15.8937 19.2587 16.1245 19.0884 16.2948C18.9181 16.4651 18.6873 16.5609 18.4465 16.5613C18.2054 16.5614 17.9742 16.4657 17.8036 16.2954C17.633 16.125 17.537 15.8939 17.5367 15.6529C17.5368 15.5335 17.5603 15.4152 17.6061 15.3049C17.6518 15.1947 17.7189 15.0945 17.8034 15.0101C17.8878 14.9257 17.9881 14.8588 18.0985 14.8132C18.2088 14.7675 18.3271 14.7441 18.4465 14.7442L18.4467 14.7444ZM16 14.7444C16.1797 14.7445 16.3553 14.7979 16.5046 14.8977C16.6539 14.9976 16.7703 15.1395 16.839 15.3055C16.9077 15.4715 16.9256 15.6541 16.8905 15.8303C16.8555 16.0065 16.7689 16.1683 16.6419 16.2953C16.5148 16.4223 16.353 16.5088 16.1768 16.5439C16.0006 16.5789 15.818 16.5609 15.652 16.4922C15.486 16.4234 15.3441 16.307 15.2443 16.1577C15.1445 16.0083 15.0912 15.8327 15.0911 15.6531C15.091 15.5337 15.1145 15.4155 15.1601 15.3051C15.2057 15.1948 15.2727 15.0946 15.3571 15.0101C15.4415 14.9257 15.5418 14.8588 15.6521 14.8131C15.7624 14.7675 15.8806 14.7443 16 14.7444ZM13.554 14.7444C13.675 14.7417 13.7953 14.7633 13.9079 14.8077C14.0204 14.8522 14.123 14.9187 14.2095 15.0033C14.296 15.0879 14.3648 15.1889 14.4117 15.3005C14.4586 15.412 14.4828 15.5318 14.4828 15.6529C14.4828 15.7739 14.4586 15.8937 14.4117 16.0052C14.3648 16.1168 14.296 16.2178 14.2095 16.3025C14.123 16.3871 14.0204 16.4536 13.9079 16.498C13.7953 16.5425 13.675 16.564 13.554 16.5613C13.3155 16.5576 13.0881 16.4602 12.9207 16.2902C12.7534 16.1203 12.6596 15.8913 12.6596 15.6528C12.6596 15.4142 12.7534 15.1853 12.9207 15.0153C13.0881 14.8453 13.3155 14.7481 13.554 14.7444ZM16 10.8413C13.3356 10.8413 11.1885 12.9178 11.1885 15.6526C11.1885 16.9662 11.6851 18.1271 12.4943 18.9789L12.2071 20.266C12.1125 20.6895 12.4063 20.9744 12.7871 20.7624L14.0438 20.0613C14.6613 20.3287 15.3272 20.4659 16 20.4644C18.6654 20.4644 20.8111 18.3893 20.8111 15.6533C20.8111 12.9182 18.6654 10.8418 16 10.8418V10.8413Z" fill="#083EC5"/>
</svg>
