<svg width="32" height="32" viewBox="0 0 32 32" fill="none" xmlns="http://www.w3.org/2000/svg">
<rect width="32" height="32" rx="4" fill="#EDF2F7"/>
<g clip-path="url(#clip0_62444_7073)">
<path d="M26 16C26 20.9914 22.343 25.1285 17.5625 25.8785V18.8906H19.8926L20.3359 16H17.5625V14.1242C17.5625 13.3332 17.95 12.5625 19.1922 12.5625H20.4531V10.1016C20.4531 10.1016 19.3086 9.90625 18.2145 9.90625C15.9305 9.90625 14.4375 11.2906 14.4375 13.7969V16H11.8984V18.8906H14.4375V25.8785C9.65703 25.1285 6 20.9914 6 16C6 10.4773 10.4773 6 16 6C21.5227 6 26 10.4773 26 16Z" fill="#1877F2"/>
<path d="M19.8926 18.8906L20.3359 16H17.5625V14.1242C17.5625 13.3334 17.9499 12.5625 19.1921 12.5625H20.4531V10.1016C20.4531 10.1016 19.3088 9.90625 18.2146 9.90625C15.9304 9.90625 14.4375 11.2906 14.4375 13.7969V16H11.8984V18.8906H14.4375V25.8785C14.9466 25.9584 15.4684 26 16 26C16.5316 26 17.0534 25.9584 17.5625 25.8785V18.8906H19.8926Z" fill="white"/>
</g>
<defs>
<clipPath id="clip0_62444_7073">
<rect width="20" height="20" fill="white" transform="translate(6 6)"/>
</clipPath>
</defs>
</svg>
