<svg width="21" height="21" viewBox="0 0 21 21" fill="none" xmlns="http://www.w3.org/2000/svg">
<path fill-rule="evenodd" clip-rule="evenodd" d="M15.5 10.5026C16.1234 10.5024 16.7342 10.3275 17.2632 9.99755C17.7921 9.66762 18.218 9.19598 18.4923 8.63618C18.7667 8.07638 18.8785 7.45086 18.8152 6.83068C18.7519 6.21049 18.5159 5.6205 18.1341 5.1277C17.7523 4.6349 17.2399 4.25904 16.6552 4.04283C16.0705 3.82662 15.4368 3.77872 14.8263 3.90455C14.2157 4.03039 13.6526 4.32493 13.2011 4.75472C12.7495 5.18451 12.4275 5.73232 12.2716 6.33594H2.99996C2.77895 6.33594 2.56699 6.42374 2.41071 6.58002C2.25442 6.7363 2.16663 6.94826 2.16663 7.16927C2.16663 7.39029 2.25442 7.60225 2.41071 7.75853C2.56699 7.91481 2.77895 8.0026 2.99996 8.0026H12.2716C12.6416 9.44011 13.9466 10.5026 15.5 10.5026ZM13.8333 7.16927C13.8333 7.6113 14.0089 8.03522 14.3214 8.34778C14.634 8.66034 15.0579 8.83594 15.5 8.83594C15.942 8.83594 16.3659 8.66034 16.6785 8.34778C16.991 8.03522 17.1666 7.6113 17.1666 7.16927C17.1666 6.72724 16.991 6.30332 16.6785 5.99076C16.3659 5.6782 15.942 5.5026 15.5 5.5026C15.0579 5.5026 14.634 5.6782 14.3214 5.99076C14.0089 6.30332 13.8333 6.72724 13.8333 7.16927ZM2.16663 13.8359C2.16583 13.0241 2.46136 12.2398 2.99777 11.6303C3.53418 11.0209 4.27458 10.6282 5.08 10.5259C5.88542 10.4236 6.70048 10.6188 7.3722 11.0748C8.04393 11.5308 8.52612 12.2163 8.72829 13.0026H18C18.221 13.0026 18.4329 13.0904 18.5892 13.2467C18.7455 13.403 18.8333 13.6149 18.8333 13.8359C18.8333 14.057 18.7455 14.2689 18.5892 14.4252C18.4329 14.5815 18.221 14.6693 18 14.6693H8.72829C8.52352 15.453 8.04049 16.1354 7.3694 16.5891C6.69831 17.0428 5.88504 17.2367 5.08144 17.1346C4.27785 17.0326 3.53887 16.6415 3.00248 16.0345C2.4661 15.4275 2.16899 14.646 2.16663 13.8359ZM7.16663 13.8359C7.16663 13.3939 6.99103 12.97 6.67847 12.6574C6.36591 12.3449 5.94199 12.1693 5.49996 12.1693C5.05793 12.1693 4.63401 12.3449 4.32145 12.6574C4.00889 12.97 3.83329 13.3939 3.83329 13.8359C3.83329 14.278 4.00889 14.7019 4.32145 15.0145C4.63401 15.327 5.05793 15.5026 5.49996 15.5026C5.94199 15.5026 6.36591 15.327 6.67847 15.0145C6.99103 14.7019 7.16663 14.278 7.16663 13.8359Z" fill="#404A60"/>
</svg>
