<svg width="61" height="61" viewBox="0 0 61 61" fill="none" xmlns="http://www.w3.org/2000/svg">
<path d="M23 25.5C25.7614 25.5 28 23.2614 28 20.5C28 17.7386 25.7614 15.5 23 15.5C20.2386 15.5 18 17.7386 18 20.5C18 23.2614 20.2386 25.5 23 25.5Z" stroke="#A8A8A8" stroke-width="3" stroke-linecap="round" stroke-linejoin="round"/>
<path d="M33 5.5H23C10.5 5.5 5.5 10.5 5.5 23V38C5.5 50.5 10.5 55.5 23 55.5H38C50.5 55.5 55.5 50.5 55.5 38V25.5" stroke="#A8A8A8" stroke-width="3" stroke-linecap="round" stroke-linejoin="round"/>
<path d="M39.875 13H53.625" stroke="#A8A8A8" stroke-width="3" stroke-linecap="round"/>
<path d="M46.75 19.875V6.125" stroke="#A8A8A8" stroke-width="3" stroke-linecap="round"/>
<path d="M7.1748 47.875L19.4998 39.6C21.4748 38.275 24.3248 38.425 26.0998 39.95L26.9248 40.675C28.8748 42.35 32.0248 42.35 33.9748 40.675L44.3748 31.75C46.3248 30.075 49.4748 30.075 51.4248 31.75L55.4998 35.25" stroke="#A8A8A8" stroke-width="3" stroke-linecap="round" stroke-linejoin="round"/>
</svg>
