<svg width="33" height="32" viewBox="0 0 33 32" fill="none" xmlns="http://www.w3.org/2000/svg">
<path d="M16.5 2C13.5837 2.00344 10.7878 3.16347 8.72564 5.22563C6.66348 7.28778 5.50345 10.0837 5.50001 13C5.49652 15.3832 6.27499 17.7018 7.71601 19.6C7.71601 19.6 8.01601 19.995 8.06501 20.052L16.5 30L24.939 20.047C24.983 19.994 25.284 19.6 25.284 19.6L25.285 19.597C26.7253 17.6996 27.5034 15.3821 27.5 13C27.4966 10.0837 26.3365 7.28778 24.2744 5.22563C22.2122 3.16347 19.4163 2.00344 16.5 2ZM16.5 17C15.7089 17 14.9355 16.7654 14.2777 16.3259C13.6199 15.8864 13.1072 15.2616 12.8045 14.5307C12.5017 13.7998 12.4225 12.9956 12.5769 12.2196C12.7312 11.4437 13.1122 10.731 13.6716 10.1716C14.231 9.61216 14.9437 9.2312 15.7197 9.07686C16.4956 8.92252 17.2998 9.00173 18.0307 9.30448C18.7616 9.60723 19.3864 10.1199 19.8259 10.7777C20.2654 11.4355 20.5 12.2089 20.5 13C20.4987 14.0605 20.0768 15.0771 19.327 15.827C18.5771 16.5768 17.5605 16.9987 16.5 17Z" fill="#0A5B55"/>
</svg>
