<svg width="20" height="20" viewBox="0 0 20 20" fill="none" xmlns="http://www.w3.org/2000/svg">
<g clip-path="url(#clip0_17718_2322)">
<path d="M8.33301 20C6.61059 20 5.20801 18.5983 5.20801 16.875C5.20801 16.53 5.48801 16.25 5.83301 16.25C6.17801 16.25 6.45801 16.53 6.45801 16.875C6.45801 17.9093 7.29969 18.75 8.33301 18.75C9.36633 18.75 10.208 17.9093 10.208 16.875C10.208 16.53 10.488 16.25 10.833 16.25C11.178 16.25 11.458 16.53 11.458 16.875C11.458 18.5983 10.0556 20 8.33301 20Z" fill="#6940C9"/>
<path d="M15.2083 17.5001H1.45828C0.654141 17.5001 2.7695e-07 16.8459 2.7695e-07 16.0418C-0.000129556 15.8312 0.0453907 15.623 0.133427 15.4317C0.221463 15.2403 0.349923 15.0703 0.509961 14.9334C0.53086 14.9151 0.553321 14.8984 0.576641 14.8834C1.79992 13.8159 2.5 12.28 2.5 10.6584V8.33336C2.5 5.61929 4.33914 3.28925 6.9725 2.66672C7.3091 2.58918 7.64586 2.79504 7.72508 3.13179C7.8041 3.46765 7.59582 3.80425 7.2609 3.88343C5.19332 4.37172 3.75 6.20172 3.75 8.33336V10.6584C3.75 12.6718 2.86742 14.5768 1.33086 15.8841C1.31836 15.8943 1.30754 15.9034 1.2941 15.9125C1.26515 15.9494 1.2496 15.9949 1.25 16.0418C1.25 16.155 1.34508 16.2501 1.45828 16.2501H15.2083C15.3216 16.2501 15.4167 16.155 15.4167 16.0418C15.4167 15.9834 15.395 15.9409 15.3717 15.9125C15.3592 15.9034 15.3475 15.8943 15.3359 15.8842C14.5892 15.2476 13.9999 14.4793 13.5851 13.6001C13.4367 13.2884 13.57 12.9159 13.8825 12.7676C13.9566 12.7324 14.037 12.7122 14.119 12.7081C14.201 12.7041 14.283 12.7162 14.3603 12.7439C14.4376 12.7717 14.5086 12.8144 14.5694 12.8696C14.6301 12.9248 14.6793 12.9915 14.7142 13.0659C15.0441 13.7626 15.5066 14.3743 16.0916 14.8859C16.1133 14.9009 16.1359 14.9168 16.1549 14.9334C16.3155 15.07 16.4445 15.2398 16.5329 15.4312C16.6212 15.6226 16.6669 15.831 16.6667 16.0418C16.6667 16.8459 16.0126 17.5001 15.2083 17.5001Z" fill="#6940C9"/>
<path d="M14.5836 10.8333C11.597 10.8333 9.16699 8.40332 9.16699 5.41672C9.16699 2.42996 11.597 0 14.5836 0C17.5703 0 20.0003 2.42996 20.0003 5.41672C20.0003 8.40332 17.5703 10.8333 14.5836 10.8333ZM14.5836 1.25C12.2861 1.25 10.417 3.11922 10.417 5.41672C10.417 7.71422 12.2861 9.58328 14.5836 9.58328C16.8811 9.58328 18.7503 7.71422 18.7503 5.41672C18.7503 3.11922 16.8811 1.25 14.5836 1.25Z" fill="#6940C9"/>
<path d="M14.7917 7.91693C14.4467 7.91693 14.1667 7.63693 14.1667 7.29193V4.5835H13.75C13.405 4.5835 13.125 4.3035 13.125 3.9585C13.125 3.6135 13.405 3.3335 13.75 3.3335H14.7917C15.1367 3.3335 15.4167 3.6135 15.4167 3.9585V7.29193C15.4167 7.63693 15.1367 7.91693 14.7917 7.91693Z" fill="#6940C9"/>
</g>
<defs>
<clipPath id="clip0_17718_2322">
<rect width="20" height="20" fill="white"/>
</clipPath>
</defs>
</svg>
