<svg width="32" height="32" viewBox="0 0 32 32" fill="none" xmlns="http://www.w3.org/2000/svg">
<rect width="32" height="32" rx="4" fill="#EDF2F7"/>
<g clip-path="url(#clip0_62444_6950)">
<path d="M9.28677 21.218C9.20871 21.0824 9.03205 21.0372 8.89647 21.1152L8.18159 21.5302V20.7044C8.18159 20.5483 8.05423 20.4209 7.89811 20.4209C7.74199 20.4209 7.61463 20.5483 7.61463 20.7044V21.5302L6.89975 21.1152C6.76417 21.0372 6.58751 21.0824 6.50945 21.218C6.43139 21.3535 6.47658 21.5302 6.61216 21.6083L7.33114 22.0273L6.61216 22.4464C6.47658 22.5244 6.43139 22.7011 6.50945 22.8367C6.58751 22.9723 6.76417 23.0175 6.89975 22.9394L7.61463 22.5244V23.3502C7.61463 23.5064 7.74199 23.6337 7.89811 23.6337C8.05423 23.6337 8.18159 23.5064 8.18159 23.3502V22.5244L8.89647 22.9394C9.03205 23.0175 9.20871 22.9723 9.28677 22.8367C9.36483 22.7011 9.31964 22.5244 9.18406 22.4464L8.46508 22.0273L9.18406 21.6083C9.31964 21.5261 9.36894 21.3535 9.28677 21.218ZM11.9121 22.8326C11.9901 22.9682 12.1668 23.0134 12.3024 22.9353L13.0173 22.5203V23.3461C13.0173 23.5023 13.1446 23.6296 13.3007 23.6296C13.4569 23.6296 13.5842 23.5023 13.5842 23.3461V22.5203L14.2991 22.9353C14.4347 23.0134 14.6113 22.9682 14.6894 22.8326C14.7675 22.697 14.7223 22.5203 14.5867 22.4423L13.8677 22.0232L14.5867 21.6041C14.7223 21.5261 14.7675 21.3494 14.6894 21.2138C14.6113 21.0783 14.4347 21.0331 14.2991 21.1111L13.5842 21.5261V20.7003C13.5842 20.5442 13.4569 20.4168 13.3007 20.4168C13.1446 20.4168 13.0173 20.5442 13.0173 20.7003V21.5261L12.3024 21.1152C12.1668 21.0372 11.9901 21.0824 11.9121 21.218C11.834 21.3535 11.8792 21.5302 12.0148 21.6083L12.7338 22.0273L12.0148 22.4423C11.8792 22.5203 11.834 22.697 11.9121 22.8326ZM11.4026 24.9854V25.4866C11.4026 25.6058 11.5012 25.7044 11.6204 25.7044H14.9852C15.1044 25.7044 15.203 25.6058 15.203 25.4866V24.9854C15.203 24.8663 15.1044 24.7677 14.9852 24.7677H11.6204C11.4971 24.7677 11.4026 24.8663 11.4026 24.9854ZM19.6031 10.9756H19.5785V9.85805C19.5785 7.91475 17.9885 6.26315 16.0493 6.29601C14.1635 6.32888 12.6352 7.87366 12.6352 9.76767V9.87449C12.6352 10.0347 12.7666 10.1662 12.9269 10.1662H13.8595C14.0197 10.1662 14.1512 10.0347 14.1512 9.87449V9.84162C14.1512 8.79807 14.9359 7.88188 15.9795 7.81615C17.1134 7.7463 18.0583 8.64606 18.0583 9.76356V10.9714H15.1824V10.9756H12.5242C12.0312 10.992 11.6327 11.3905 11.6327 11.8876V16.941C11.6327 17.4464 12.0435 17.8572 12.5489 17.8572H19.599C20.1044 17.8572 20.5152 17.4464 20.5152 16.941V11.8917C20.5193 11.3864 20.1085 10.9756 19.6031 10.9756ZM16.6204 14.6444C16.5505 14.6937 16.53 14.7471 16.53 14.8293C16.5341 15.1991 16.5341 15.5688 16.53 15.9427C16.5382 16.0988 16.4601 16.2467 16.3205 16.3166C15.9959 16.4809 15.6713 16.2508 15.6713 15.9427V14.8252C15.6713 14.7512 15.6549 14.6978 15.5892 14.6485C15.2523 14.402 15.1413 13.9788 15.3098 13.605C15.4741 13.2434 15.8726 13.0298 16.2465 13.1078C16.6656 13.19 16.9573 13.531 16.9614 13.946C16.9737 14.2377 16.8546 14.476 16.6204 14.6444ZM16.8011 24.9854V25.4866C16.8011 25.6058 16.8998 25.7044 17.0189 25.7044H20.3837C20.5029 25.7044 20.6015 25.6058 20.6015 25.4866V24.9854C20.6015 24.8663 20.5029 24.7677 20.3837 24.7677H17.0189C16.8998 24.7677 16.8011 24.8663 16.8011 24.9854ZM17.3106 22.8326C17.3887 22.9682 17.5653 23.0134 17.7009 22.9353L18.4158 22.5203V23.3461C18.4158 23.5023 18.5431 23.6296 18.6993 23.6296C18.8554 23.6296 18.9827 23.5023 18.9827 23.3461V22.5203L19.6976 22.9353C19.8332 23.0134 20.0099 22.9682 20.0879 22.8326C20.166 22.697 20.1208 22.5203 19.9852 22.4423L19.2662 22.0232L19.9852 21.6041C20.1208 21.5261 20.166 21.3494 20.0879 21.2138C20.0099 21.0783 19.8332 21.0331 19.6976 21.1111L18.9827 21.5261V20.7003C18.9827 20.5442 18.8554 20.4168 18.6993 20.4168C18.5431 20.4168 18.4158 20.5442 18.4158 20.7003V21.5261L17.7009 21.1111C17.5653 21.0331 17.3887 21.0783 17.3106 21.2138C17.2325 21.3494 17.2777 21.5261 17.4133 21.6041L18.1323 22.0232L17.4133 22.4423C17.2777 22.5203 17.2325 22.697 17.3106 22.8326ZM25.7823 24.7677H22.4174C22.2983 24.7677 22.1997 24.8663 22.1997 24.9854V25.4866C22.1997 25.6058 22.2983 25.7044 22.4174 25.7044H25.7823C25.9014 25.7044 26 25.6058 26 25.4866V24.9854C26 24.8663 25.9014 24.7677 25.7823 24.7677ZM6.21775 25.7044H9.58258C9.70173 25.7044 9.80033 25.6058 9.80033 25.4866V24.9854C9.80033 24.8663 9.70173 24.7677 9.58258 24.7677H6.21775C6.0986 24.7677 6 24.8663 6 24.9854V25.4866C6 25.6058 6.0986 25.7044 6.21775 25.7044ZM22.7132 22.8326C22.7913 22.9682 22.968 23.0134 23.1035 22.9353L23.8184 22.5203V23.3461C23.8184 23.5023 23.9458 23.6296 24.1019 23.6296C24.258 23.6296 24.3854 23.5023 24.3854 23.3461V22.5203L25.1002 22.9353C25.2358 23.0134 25.4125 22.9682 25.4905 22.8326C25.5686 22.697 25.5234 22.5203 25.3878 22.4423L24.6689 22.0232L25.3878 21.6041C25.5234 21.5261 25.5686 21.3494 25.4905 21.2138C25.4125 21.0783 25.2358 21.0331 25.1002 21.1111L24.3854 21.5261V20.7003C24.3854 20.5442 24.258 20.4168 24.1019 20.4168C23.9458 20.4168 23.8184 20.5442 23.8184 20.7003V21.5261L23.1035 21.1111C22.968 21.0331 22.7913 21.0783 22.7132 21.2138C22.6352 21.3494 22.6804 21.5261 22.8159 21.6041L23.5349 22.0232L22.8159 22.4423C22.6804 22.5203 22.6311 22.697 22.7132 22.8326Z" fill="#0A5B55"/>
</g>
<defs>
<clipPath id="clip0_62444_6950">
<rect width="20" height="20" fill="white" transform="translate(6 6)"/>
</clipPath>
</defs>
</svg>
