<svg width="40" height="41" viewBox="0 0 40 41" fill="none" xmlns="http://www.w3.org/2000/svg">
<rect y="0.5" width="40" height="40" rx="20" fill="#F0ECFA"/>
<g clip-path="url(#clip0_17750_1886)">
<path d="M25.8063 12.7898C26.5735 13.9818 26.9813 15.3696 26.9808 16.7873V19.1853M22.4582 9.97656C23.105 10.2482 23.7095 10.6109 24.2535 11.0537M19.8581 13.69L17.3057 12.5448C16.6499 12.2509 16.3153 11.515 16.5243 10.8273C16.8928 9.61563 18.0042 8.85156 19.1901 8.85156C19.544 8.85156 19.9045 8.91953 20.2537 9.06391L20.9423 9.34891M12.7354 17.2217V19.1852M16.2933 11.0819C14.9805 11.7803 13.9559 12.8851 13.35 14.2007M13.1464 22.0094C12.6317 21.5133 12.3115 20.8167 12.3115 20.0454C12.3115 19.4461 12.7973 18.9602 13.3967 18.9602H14.3905" stroke="black" stroke-width="0.703125" stroke-miterlimit="10" stroke-linecap="round" stroke-linejoin="round"/>
<path d="M25.3257 18.9601H26.3195C26.9188 18.9601 27.4047 19.446 27.4047 20.0453C27.4047 20.7985 27.0994 21.4805 26.6057 21.9741M19.2141 27.6474C19.6327 27.7251 20.062 27.7265 20.4811 27.6512M14.3906 20.4849V18.9601C14.5397 18.9601 14.6803 18.9165 14.7937 18.8368C14.9077 18.7571 14.9944 18.6418 15.0356 18.4984C15.2222 17.8496 15.5011 17.2398 15.8602 16.6848M16.9158 15.4182C17.4665 14.9009 18.0996 14.4789 18.7889 14.1695L19.8581 13.6899L20.9273 14.1695C21.8301 14.5745 22.6337 15.1717 23.2819 15.9193C23.9303 16.6669 24.4077 17.5471 24.6806 18.4984C24.7219 18.6418 24.8086 18.7571 24.9225 18.8368C25.0359 18.9165 25.1766 18.9601 25.3256 18.9601V20.4118M16.808 18.4485C17.0687 18.3051 17.3614 18.23 17.6589 18.23C17.9564 18.23 18.2491 18.3051 18.5098 18.4485" stroke="black" stroke-width="0.703125" stroke-miterlimit="10" stroke-linecap="round" stroke-linejoin="round"/>
<path d="M21.2065 18.4484C21.4672 18.3051 21.7599 18.23 22.0574 18.23C22.3549 18.23 22.6476 18.3051 22.9083 18.4484M18.3456 20.4118C18.1352 20.5274 17.899 20.5881 17.6589 20.5881C17.4188 20.5881 17.1826 20.5274 16.9722 20.4118M22.7441 20.4118C22.5337 20.5274 22.2975 20.5881 22.0574 20.5881C21.8173 20.5881 21.5811 20.5274 21.3707 20.4118M19.2125 22.5022C19.4124 22.6041 19.6337 22.6572 19.8581 22.6572C20.0826 22.6572 20.3038 22.6041 20.5038 22.5022M19.3412 25.471C19.6858 25.5946 20.0304 25.5946 20.375 25.471M18.3603 24.1881C18.6073 24.3116 18.8906 24.3417 19.158 24.273L19.5049 24.184L19.8581 24.3795L20.2113 24.184L20.5581 24.273C20.8256 24.3417 21.1089 24.3115 21.3559 24.1881M14.7123 24.4268V21.1496C14.7123 20.7421 14.3829 20.4118 13.9765 20.4118C13.5702 20.4118 13.2407 20.7421 13.2407 21.1496V25.2278C13.2406 25.5581 13.3503 25.879 13.5525 26.1401L15.5405 28.6539C15.6554 28.7993 15.7338 28.9702 15.769 29.1522C15.8042 29.3342 15.7952 29.522 15.7427 29.6998L15.0198 32.1484" stroke="black" stroke-width="0.703125" stroke-miterlimit="10" stroke-linecap="round" stroke-linejoin="round"/>
<path d="M17.0017 24.8849L16.397 24.2409C15.9967 23.7777 15.2992 23.7299 14.8398 24.1335C14.8337 24.1387 14.8276 24.1443 14.822 24.1499C14.6856 24.2863 14.6762 24.508 14.8042 24.6566L17.1381 27.2802M18.1253 26.0812L18.5612 26.5452C18.8361 26.8379 19.036 27.1928 19.1439 27.5796C19.2518 27.9663 19.2645 28.3734 19.1809 28.7662L18.4599 32.1487M11.8127 32.1487C12.333 31.5571 13.0332 31.1528 13.8056 30.9977L15.4677 30.5096M24.6967 32.1487L23.9739 29.6999C23.9212 29.5222 23.9121 29.3344 23.9473 29.1524C23.9825 28.9704 24.0609 28.7995 24.1759 28.6541L24.7131 27.9749M25.0042 24.427V21.1499C25.0042 20.7426 25.3337 20.4121 25.7401 20.4121C25.9431 20.4121 26.1268 20.4946 26.2599 20.6282C26.3931 20.7618 26.4756 20.9465 26.4756 21.1499V25.228C26.4756 25.5585 26.3659 25.8801 26.1639 26.1402L25.7321 26.6859" stroke="black" stroke-width="0.703125" stroke-miterlimit="10" stroke-linecap="round" stroke-linejoin="round"/>
<path d="M21.2564 32.1484L20.5357 28.7656C20.452 28.373 20.4647 27.9659 20.5725 27.5792C20.6804 27.1925 20.8803 26.8377 21.1551 26.545L23.3192 24.2403C23.7197 23.7776 24.4171 23.7295 24.8767 24.1331C24.8827 24.1385 24.8886 24.1439 24.8945 24.1498C25.0308 24.2861 25.0402 24.5076 24.9121 24.6561L22.5785 27.2798M27.9036 32.1484C27.3833 31.5568 26.6832 31.1525 25.9108 30.9975L24.2486 30.5093M12.7681 13.1161L12.4899 13.8596C12.4047 14.0871 12.2718 14.2937 12.1001 14.4655C11.9283 14.6372 11.7217 14.7701 11.4942 14.8553L10.7507 15.1335L11.4942 15.4118C11.7217 15.4969 11.9283 15.6298 12.1001 15.8016C12.2718 15.9733 12.4047 16.1799 12.4899 16.4074L12.7681 17.1509L13.0464 16.4074C13.1315 16.1799 13.2644 15.9733 13.4362 15.8016C13.6079 15.6298 13.8145 15.4969 14.042 15.4118L14.7855 15.1335L14.042 14.8553C13.8145 14.7701 13.6079 14.6372 13.4362 14.4655C13.2644 14.2937 13.1315 14.0871 13.0464 13.8596L12.7681 13.1161ZM25.3257 9.49463L25.0347 10.2721C24.9457 10.5099 24.8067 10.7259 24.6272 10.9055C24.4476 11.085 24.2316 11.224 23.9937 11.3131L23.2163 11.604L23.9937 11.895C24.2316 11.984 24.4476 12.123 24.6272 12.3025C24.8067 12.4821 24.9457 12.6981 25.0347 12.936L25.3257 13.7134L25.6166 12.936C25.7057 12.6981 25.8446 12.4821 26.0242 12.3025C26.2038 12.123 26.4198 11.984 26.6576 11.895L27.4351 11.604L26.6576 11.3131C26.4198 11.224 26.2038 11.085 26.0242 10.9055C25.8446 10.7259 25.7057 10.5099 25.6166 10.2721L25.3257 9.49463ZM11.854 26.7625L11.6147 27.402C11.5395 27.6028 11.4222 27.7852 11.2705 27.9369C11.1189 28.0885 10.9365 28.2059 10.7356 28.2811L10.0962 28.5203L10.7356 28.7596C10.9365 28.8348 11.1189 28.9522 11.2705 29.1038C11.4222 29.2555 11.5395 29.4379 11.6147 29.6387L11.854 30.2782L12.0941 29.6367C12.169 29.4365 12.286 29.2547 12.4372 29.1035C12.5883 28.9523 12.7702 28.8353 12.9704 28.7604L13.6118 28.5203L12.9724 28.2811C12.7715 28.2059 12.5891 28.0885 12.4375 27.9369C12.2858 27.7852 12.1685 27.6028 12.0933 27.402L11.854 26.7625Z" stroke="black" stroke-width="0.703125" stroke-miterlimit="10" stroke-linecap="round" stroke-linejoin="round"/>
</g>
<defs>
<clipPath id="clip0_17750_1886">
<rect width="24" height="24" fill="white" transform="translate(7 8.5)"/>
</clipPath>
</defs>
</svg>
