<svg width="32" height="32" viewBox="0 0 32 32" fill="none" xmlns="http://www.w3.org/2000/svg">
<rect y="0.00012207" width="32" height="32" rx="4" fill="#EDF2F7"/>
<path d="M22.8183 9.48498C21.7011 9.36603 20.6014 9.11741 19.5417 8.74415C18.5692 8.40046 17.6363 7.95346 16.7592 7.41082C16.5303 7.27193 16.2677 7.19849 16 7.19849C15.7323 7.19849 15.4697 7.27193 15.2408 7.41082L15.24 7.41165C14.363 7.95386 13.4305 8.40057 12.4583 8.74415C11.3991 9.11726 10.3 9.36587 9.18333 9.48498C8.82462 9.52151 8.49222 9.68987 8.25052 9.95743C8.00881 10.225 7.875 10.5727 7.875 10.9333V15.2625C7.87561 16.86 8.30315 18.4283 9.11337 19.8051C9.9236 21.1819 11.0871 22.3171 12.4833 23.0933L15.2917 24.6542C15.5079 24.7758 15.7519 24.8397 16 24.8397C16.2481 24.8397 16.4921 24.7758 16.7083 24.6542L19.5167 23.0933C20.9129 22.3171 22.0764 21.1819 22.8866 19.8051C23.6969 18.4283 24.1244 16.86 24.125 15.2625V10.9341C24.1255 10.5735 23.9921 10.2256 23.7507 9.95773C23.5093 9.68985 23.177 9.52193 22.8183 9.48498ZM19.3158 14.4866L16.1908 17.82C16.0424 17.9783 15.8379 18.0725 15.6211 18.0823C15.4042 18.0921 15.1921 18.0168 15.03 17.8725L13.155 16.2058C13.0691 16.1344 12.9984 16.0464 12.9471 15.9471C12.8959 15.8477 12.8652 15.7391 12.8568 15.6277C12.8483 15.5163 12.8624 15.4043 12.8982 15.2984C12.9339 15.1925 12.9906 15.0949 13.0649 15.0114C13.1391 14.9278 13.2294 14.8601 13.3304 14.8122C13.4313 14.7642 13.5409 14.7371 13.6526 14.7324C13.7642 14.7277 13.8757 14.7455 13.9803 14.7847C14.085 14.824 14.1806 14.8838 14.2617 14.9608L15.5308 16.0883L18.1008 13.3466C18.1788 13.2637 18.2729 13.1975 18.3774 13.1523C18.4819 13.107 18.5945 13.0835 18.7083 13.0833C18.8709 13.0832 19.03 13.1307 19.1659 13.2199C19.3018 13.3091 19.4087 13.436 19.4734 13.5852C19.538 13.7344 19.5576 13.8992 19.5298 14.0594C19.5019 14.2195 19.427 14.3681 19.3158 14.4866Z" fill="#0A5B55"/>
</svg>
