<svg width="20" height="20" viewBox="0 0 20 20" fill="none" xmlns="http://www.w3.org/2000/svg">
<path fill-rule="evenodd" clip-rule="evenodd" d="M8.33333 0.625C12.5875 0.625 16.0417 4.07917 16.0417 8.33333C16.0417 12.5875 12.5875 16.0417 8.33333 16.0417C4.07917 16.0417 0.625 12.5875 0.625 8.33333C0.625 4.07917 4.07917 0.625 8.33333 0.625ZM8.33333 1.875C4.76917 1.875 1.875 4.76917 1.875 8.33333C1.875 11.8975 4.76917 14.7917 8.33333 14.7917C11.8975 14.7917 14.7917 11.8975 14.7917 8.33333C14.7917 4.76917 11.8975 1.875 8.33333 1.875Z" fill="#A1A1A1"/>
<path fill-rule="evenodd" clip-rule="evenodd" d="M8.33398 3.9585C8.16822 3.9585 8.00925 3.89265 7.89204 3.77544C7.77483 3.65823 7.70898 3.49926 7.70898 3.3335C7.70898 3.16774 7.77483 3.00876 7.89204 2.89155C8.00925 2.77434 8.16822 2.7085 8.33398 2.7085C10.289 2.7085 12.0132 3.7085 13.0215 5.22433C13.1132 5.36246 13.1463 5.53137 13.1135 5.69391C13.0807 5.85644 12.9846 5.99928 12.8465 6.091C12.7084 6.18272 12.5394 6.21581 12.3769 6.18299C12.2144 6.15017 12.0715 6.05413 11.9798 5.916C11.5809 5.31409 11.0392 4.82032 10.4031 4.47875C9.7669 4.13718 9.05605 3.95844 8.33398 3.9585ZM12.8923 13.7752C12.7752 13.658 12.7094 13.4992 12.7094 13.3335C12.7094 13.1678 12.7752 13.009 12.8923 12.8918C13.0095 12.7747 13.1683 12.7089 13.334 12.7089C13.4996 12.7089 13.6585 12.7747 13.7757 12.8918L19.1923 18.3085C19.2503 18.3665 19.2963 18.4354 19.3277 18.5111C19.3591 18.5869 19.3753 18.6681 19.3753 18.7502C19.3753 18.8322 19.3591 18.9134 19.3277 18.9892C19.2963 19.065 19.2503 19.1338 19.1923 19.1918C19.1343 19.2498 19.0655 19.2958 18.9897 19.3272C18.9139 19.3586 18.8327 19.3748 18.7507 19.3748C18.6686 19.3748 18.5874 19.3586 18.5116 19.3272C18.4358 19.2958 18.367 19.2498 18.309 19.1918L12.8923 13.7752Z" fill="#A1A1A1"/>
</svg>
