<svg width="18" height="18" viewBox="0 0 18 18" fill="none" xmlns="http://www.w3.org/2000/svg">
<path d="M8.14396 3.53424C8.41338 2.70506 9.58645 2.70506 9.85586 3.53424L10.8185 6.49686C10.939 6.86768 11.2845 7.11874 11.6744 7.11874H14.7895C15.6614 7.11874 16.0239 8.23439 15.3185 8.74686L12.7984 10.5779C12.4829 10.807 12.3509 11.2133 12.4714 11.5841L13.434 14.5467C13.7034 15.3759 12.7544 16.0654 12.0491 15.5529L9.52892 13.7219C9.21348 13.4928 8.78634 13.4928 8.47091 13.7219L5.95075 15.5529C5.24541 16.0654 4.29638 15.3759 4.5658 14.5467L5.52841 11.5841C5.6489 11.2133 5.5169 10.807 5.20146 10.5779L2.68131 8.74685C1.97597 8.23439 2.33847 7.11874 3.21032 7.11874H6.3254C6.7153 7.11874 7.06086 6.86768 7.18135 6.49686L8.14396 3.53424Z" fill="#FFB701"/>
</svg>
