<svg width="32" height="32" viewBox="0 0 32 32" fill="none" xmlns="http://www.w3.org/2000/svg">
<rect width="32" height="32" rx="4" fill="#EDF2F7"/>
<g clip-path="url(#clip0_62444_6973)">
<path d="M16.9438 22.0187C16.9438 20.6633 17.4715 19.3887 18.4301 18.4301C19.3887 17.4715 20.6629 16.9438 22.0187 16.9438C23.1316 16.9438 24.1898 17.3 25.0637 17.9578C25.1121 17.25 25.1422 16.4582 25.1434 15.5719C25.141 13.3426 24.9539 11.7102 24.7543 10.5105C24.4051 8.53398 22.6098 6.73867 20.6332 6.38945C19.4336 6.18945 17.8012 6.00234 15.5715 6C13.3422 6.00234 11.7094 6.18945 10.5098 6.38906C8.53359 6.73828 6.73828 8.53359 6.38906 10.5102C6.18945 11.7098 6.00273 13.3422 6 15.5715C6.00273 17.8008 6.18945 19.4336 6.38906 20.6332C6.73828 22.6098 8.53359 24.4051 10.5102 24.7543C11.7098 24.9539 13.3422 25.1406 15.5719 25.1434C16.4582 25.1422 17.25 25.1121 17.9578 25.0637C17.3 24.1898 16.9438 23.132 16.9438 22.0187ZM10.8422 10.6258H20.3012C20.9129 10.6258 21.409 11.1219 21.409 11.7336C21.409 12.3453 20.9129 12.8414 20.3012 12.8414H10.8422C10.2305 12.8414 9.73438 12.3453 9.73438 11.7336C9.73438 11.1219 10.2305 10.6258 10.8422 10.6258ZM10.8422 17.4676C10.2305 17.4676 9.73438 16.9715 9.73438 16.3598C9.73438 15.748 10.2305 15.252 10.8422 15.252H16.3949C17.0066 15.252 17.5027 15.748 17.5027 16.3598C17.5027 16.9715 17.0066 17.4676 16.3949 17.4676H10.8422Z" fill="#0A5B55"/>
<path d="M22.0188 18.0375C19.82 18.0375 18.0376 19.8199 18.0376 22.0187C18.0376 24.2176 19.82 26 22.0188 26C24.2177 26 26.0001 24.2176 26.0001 22.0187C26.0001 19.8199 24.2177 18.0375 22.0188 18.0375ZM22.761 23.9941C22.761 24.4039 22.4286 24.7363 22.0188 24.7363C21.6091 24.7363 21.2767 24.4039 21.2767 23.9941V22.0359C21.2767 21.6261 21.6091 21.2937 22.0188 21.2937C22.4286 21.2937 22.761 21.6261 22.761 22.0359V23.9941ZM22.7306 20.4472C22.7032 20.6019 22.5626 20.7426 22.4079 20.7699C22.3142 20.7855 22.186 20.8 22.0114 20.8004C21.8368 20.8004 21.7091 20.7855 21.6149 20.7699C21.4603 20.7426 21.3196 20.6019 21.2923 20.4472C21.2767 20.3535 21.2622 20.2254 21.2618 20.0508C21.2618 19.8761 21.2767 19.7484 21.2923 19.6543C21.3196 19.4996 21.4603 19.359 21.6149 19.3316C21.7087 19.316 21.8368 19.3015 22.0114 19.3011C22.186 19.3011 22.3138 19.316 22.4079 19.3316C22.5626 19.359 22.7032 19.4996 22.7306 19.6543C22.7462 19.748 22.7606 19.8761 22.761 20.0508C22.761 20.2254 22.7462 20.3531 22.7306 20.4472Z" fill="#0A5B55"/>
</g>
<defs>
<clipPath id="clip0_62444_6973">
<rect width="20" height="20" fill="white" transform="translate(6 6)"/>
</clipPath>
</defs>
</svg>
