<svg width="32" height="32" viewBox="0 0 32 32" fill="none" xmlns="http://www.w3.org/2000/svg">
<rect width="32" height="32" rx="4" fill="#EDF2F7"/>
<g clip-path="url(#clip0_62444_7063)">
<path d="M17.0025 6H16.9975C11.4838 6 7 10.485 7 16C7 18.1875 7.705 20.215 8.90375 21.8612L7.6575 25.5763L11.5013 24.3475C13.0825 25.395 14.9688 26 17.0025 26C22.5162 26 27 21.5138 27 16C27 10.4863 22.5162 6 17.0025 6Z" fill="#4CAF50"/>
<path d="M22.8212 20.1212C22.5799 20.8025 21.6224 21.3675 20.8587 21.5325C20.3362 21.6437 19.6537 21.7325 17.3562 20.78C14.4174 19.5625 12.5249 16.5762 12.3774 16.3825C12.2362 16.1887 11.1899 14.8012 11.1899 13.3662C11.1899 11.9312 11.9187 11.2325 12.2124 10.9325C12.4537 10.6862 12.8524 10.5737 13.2349 10.5737C13.3587 10.5737 13.4699 10.58 13.5699 10.585C13.8637 10.5975 14.0112 10.615 14.2049 11.0787C14.4462 11.66 15.0337 13.095 15.1037 13.2425C15.1749 13.39 15.2462 13.59 15.1462 13.7837C15.0524 13.9837 14.9699 14.0725 14.8224 14.2425C14.6749 14.4125 14.5349 14.5425 14.3874 14.725C14.2524 14.8837 14.0999 15.0537 14.2699 15.3475C14.4399 15.635 15.0274 16.5937 15.8924 17.3637C17.0087 18.3575 17.9137 18.675 18.2374 18.81C18.4787 18.91 18.7662 18.8862 18.9424 18.6987C19.1662 18.4575 19.4424 18.0575 19.7237 17.6637C19.9237 17.3812 20.1762 17.3462 20.4412 17.4462C20.7112 17.54 22.1399 18.2462 22.4337 18.3925C22.7274 18.54 22.9212 18.61 22.9924 18.7337C23.0624 18.8575 23.0624 19.4387 22.8212 20.1212Z" fill="#FAFAFA"/>
</g>
<defs>
<clipPath id="clip0_62444_7063">
<rect width="20" height="20" fill="white" transform="translate(7 6)"/>
</clipPath>
</defs>
</svg>
