<svg width="14" height="14" viewBox="0 0 14 14" fill="none" xmlns="http://www.w3.org/2000/svg">
<path d="M10.9456 8.5465C10.7729 8.71384 10.6936 8.95584 10.7329 9.19317L11.3256 12.4732C11.3756 12.7512 11.2583 13.0325 11.0256 13.1932C10.7976 13.3598 10.4943 13.3798 10.2456 13.2465L7.29293 11.7065C7.19026 11.6518 7.07626 11.6225 6.95959 11.6192H6.77893C6.71626 11.6285 6.65493 11.6485 6.59893 11.6792L3.64559 13.2265C3.49959 13.2998 3.33426 13.3258 3.17226 13.2998C2.77759 13.2252 2.51426 12.8492 2.57893 12.4525L3.17226 9.1725C3.21159 8.93317 3.13226 8.68984 2.95959 8.51984L0.552258 6.1865C0.350925 5.99117 0.280925 5.69784 0.372925 5.43317C0.462258 5.16917 0.690258 4.9765 0.965592 4.93317L4.27893 4.4525C4.53093 4.4265 4.75226 4.27317 4.86559 4.0465L6.32559 1.05317C6.36026 0.986504 6.40493 0.925171 6.45893 0.873171L6.51892 0.826504C6.55026 0.791837 6.58626 0.763171 6.62626 0.739837L6.69893 0.713171L6.81226 0.666504H7.09292C7.34359 0.692504 7.56426 0.842504 7.67959 1.0665L9.15893 4.0465C9.26559 4.2645 9.47293 4.41584 9.71226 4.4525L13.0256 4.93317C13.3056 4.97317 13.5396 5.1665 13.6323 5.43317C13.7196 5.7005 13.6443 5.99384 13.4389 6.1865L10.9456 8.5465Z" fill="url(#paint0_linear_19579_603)"/>
<defs>
<linearGradient id="paint0_linear_19579_603" x1="13.6681" y1="13.334" x2="-2.06746" y2="8.53121" gradientUnits="userSpaceOnUse">
<stop stop-color="#FB9400"/>
<stop offset="1" stop-color="#FFAB38"/>
</linearGradient>
</defs>
</svg>
